G04 #@! TF.GenerationSoftware,KiCad,Pcbnew,5.1.5+dfsg1-2build2*
G04 #@! TF.CreationDate,2020-12-28T19:44:29-06:00*
G04 #@! TF.ProjectId,2060-ORIO2,32303630-2d4f-4524-994f-322e6b696361,rev?*
G04 #@! TF.SameCoordinates,Original*
G04 #@! TF.FileFunction,Legend,Bot*
G04 #@! TF.FilePolarity,Positive*
%FSLAX46Y46*%
G04 Gerber Fmt 4.6, Leading zero omitted, Abs format (unit mm)*
G04 Created by KiCad (PCBNEW 5.1.5+dfsg1-2build2) date 2020-12-28 19:44:29*
%MOMM*%
%LPD*%
G04 APERTURE LIST*
%ADD10C,0.200000*%
%ADD11C,0.120000*%
%ADD12C,0.150000*%
%ADD13R,0.850800X0.350800*%
%ADD14C,2.450800*%
%ADD15R,2.450800X2.450800*%
%ADD16O,1.750800X1.750800*%
%ADD17R,1.750800X1.750800*%
%ADD18O,1.650800X1.650800*%
%ADD19R,1.650800X1.650800*%
%ADD20C,2.550800*%
%ADD21C,2.250800*%
%ADD22R,2.250800X2.250800*%
%ADD23C,5.700000*%
G04 APERTURE END LIST*
D10*
X122186257Y-59682028D02*
X122524923Y-58956314D01*
X122766828Y-59682028D02*
X122766828Y-58158028D01*
X122379780Y-58158028D01*
X122283019Y-58230600D01*
X122234638Y-58303171D01*
X122186257Y-58448314D01*
X122186257Y-58666028D01*
X122234638Y-58811171D01*
X122283019Y-58883742D01*
X122379780Y-58956314D01*
X122766828Y-58956314D01*
X121363780Y-59609457D02*
X121460542Y-59682028D01*
X121654066Y-59682028D01*
X121750828Y-59609457D01*
X121799209Y-59464314D01*
X121799209Y-58883742D01*
X121750828Y-58738600D01*
X121654066Y-58666028D01*
X121460542Y-58666028D01*
X121363780Y-58738600D01*
X121315400Y-58883742D01*
X121315400Y-59028885D01*
X121799209Y-59174028D01*
X120976733Y-58666028D02*
X120734828Y-59682028D01*
X120492923Y-58666028D01*
X119428542Y-58158028D02*
X118799590Y-58158028D01*
X119138257Y-58738600D01*
X118993114Y-58738600D01*
X118896352Y-58811171D01*
X118847971Y-58883742D01*
X118799590Y-59028885D01*
X118799590Y-59391742D01*
X118847971Y-59536885D01*
X118896352Y-59609457D01*
X118993114Y-59682028D01*
X119283400Y-59682028D01*
X119380161Y-59609457D01*
X119428542Y-59536885D01*
X153319400Y-56684828D02*
X153319400Y-55160828D01*
X152883971Y-56684828D02*
X152883971Y-55886542D01*
X152932352Y-55741400D01*
X153029114Y-55668828D01*
X153174257Y-55668828D01*
X153271019Y-55741400D01*
X153319400Y-55813971D01*
X152545304Y-55668828D02*
X152158257Y-55668828D01*
X152400161Y-55160828D02*
X152400161Y-56467114D01*
X152351780Y-56612257D01*
X152255019Y-56684828D01*
X152158257Y-56684828D01*
X151964733Y-55668828D02*
X151577685Y-55668828D01*
X151819590Y-55160828D02*
X151819590Y-56467114D01*
X151771209Y-56612257D01*
X151674447Y-56684828D01*
X151577685Y-56684828D01*
X151239019Y-55668828D02*
X151239019Y-57192828D01*
X151239019Y-55741400D02*
X151142257Y-55668828D01*
X150948733Y-55668828D01*
X150851971Y-55741400D01*
X150803590Y-55813971D01*
X150755209Y-55959114D01*
X150755209Y-56394542D01*
X150803590Y-56539685D01*
X150851971Y-56612257D01*
X150948733Y-56684828D01*
X151142257Y-56684828D01*
X151239019Y-56612257D01*
X150368161Y-56612257D02*
X150271400Y-56684828D01*
X150077876Y-56684828D01*
X149981114Y-56612257D01*
X149932733Y-56467114D01*
X149932733Y-56394542D01*
X149981114Y-56249400D01*
X150077876Y-56176828D01*
X150223019Y-56176828D01*
X150319780Y-56104257D01*
X150368161Y-55959114D01*
X150368161Y-55886542D01*
X150319780Y-55741400D01*
X150223019Y-55668828D01*
X150077876Y-55668828D01*
X149981114Y-55741400D01*
X149497304Y-56539685D02*
X149448923Y-56612257D01*
X149497304Y-56684828D01*
X149545685Y-56612257D01*
X149497304Y-56539685D01*
X149497304Y-56684828D01*
X149497304Y-55741400D02*
X149448923Y-55813971D01*
X149497304Y-55886542D01*
X149545685Y-55813971D01*
X149497304Y-55741400D01*
X149497304Y-55886542D01*
X148287780Y-55088257D02*
X149158638Y-57047685D01*
X147223400Y-55088257D02*
X148094257Y-57047685D01*
X146449304Y-55668828D02*
X146449304Y-56902542D01*
X146497685Y-57047685D01*
X146546066Y-57120257D01*
X146642828Y-57192828D01*
X146787971Y-57192828D01*
X146884733Y-57120257D01*
X146449304Y-56612257D02*
X146546066Y-56684828D01*
X146739590Y-56684828D01*
X146836352Y-56612257D01*
X146884733Y-56539685D01*
X146933114Y-56394542D01*
X146933114Y-55959114D01*
X146884733Y-55813971D01*
X146836352Y-55741400D01*
X146739590Y-55668828D01*
X146546066Y-55668828D01*
X146449304Y-55741400D01*
X145965495Y-56684828D02*
X145965495Y-55668828D01*
X145965495Y-55160828D02*
X146013876Y-55233400D01*
X145965495Y-55305971D01*
X145917114Y-55233400D01*
X145965495Y-55160828D01*
X145965495Y-55305971D01*
X145626828Y-55668828D02*
X145239780Y-55668828D01*
X145481685Y-55160828D02*
X145481685Y-56467114D01*
X145433304Y-56612257D01*
X145336542Y-56684828D01*
X145239780Y-56684828D01*
X144901114Y-56684828D02*
X144901114Y-55160828D01*
X144465685Y-56684828D02*
X144465685Y-55886542D01*
X144514066Y-55741400D01*
X144610828Y-55668828D01*
X144755971Y-55668828D01*
X144852733Y-55741400D01*
X144901114Y-55813971D01*
X143546447Y-55668828D02*
X143546447Y-56684828D01*
X143981876Y-55668828D02*
X143981876Y-56467114D01*
X143933495Y-56612257D01*
X143836733Y-56684828D01*
X143691590Y-56684828D01*
X143594828Y-56612257D01*
X143546447Y-56539685D01*
X143062638Y-56684828D02*
X143062638Y-55160828D01*
X143062638Y-55741400D02*
X142965876Y-55668828D01*
X142772352Y-55668828D01*
X142675590Y-55741400D01*
X142627209Y-55813971D01*
X142578828Y-55959114D01*
X142578828Y-56394542D01*
X142627209Y-56539685D01*
X142675590Y-56612257D01*
X142772352Y-56684828D01*
X142965876Y-56684828D01*
X143062638Y-56612257D01*
X142143400Y-56539685D02*
X142095019Y-56612257D01*
X142143400Y-56684828D01*
X142191780Y-56612257D01*
X142143400Y-56539685D01*
X142143400Y-56684828D01*
X141224161Y-56612257D02*
X141320923Y-56684828D01*
X141514447Y-56684828D01*
X141611209Y-56612257D01*
X141659590Y-56539685D01*
X141707971Y-56394542D01*
X141707971Y-55959114D01*
X141659590Y-55813971D01*
X141611209Y-55741400D01*
X141514447Y-55668828D01*
X141320923Y-55668828D01*
X141224161Y-55741400D01*
X140643590Y-56684828D02*
X140740352Y-56612257D01*
X140788733Y-56539685D01*
X140837114Y-56394542D01*
X140837114Y-55959114D01*
X140788733Y-55813971D01*
X140740352Y-55741400D01*
X140643590Y-55668828D01*
X140498447Y-55668828D01*
X140401685Y-55741400D01*
X140353304Y-55813971D01*
X140304923Y-55959114D01*
X140304923Y-56394542D01*
X140353304Y-56539685D01*
X140401685Y-56612257D01*
X140498447Y-56684828D01*
X140643590Y-56684828D01*
X139869495Y-56684828D02*
X139869495Y-55668828D01*
X139869495Y-55813971D02*
X139821114Y-55741400D01*
X139724352Y-55668828D01*
X139579209Y-55668828D01*
X139482447Y-55741400D01*
X139434066Y-55886542D01*
X139434066Y-56684828D01*
X139434066Y-55886542D02*
X139385685Y-55741400D01*
X139288923Y-55668828D01*
X139143780Y-55668828D01*
X139047019Y-55741400D01*
X138998638Y-55886542D01*
X138998638Y-56684828D01*
X137789114Y-55088257D02*
X138659971Y-57047685D01*
X137450447Y-55668828D02*
X137450447Y-56975114D01*
X137498828Y-57120257D01*
X137595590Y-57192828D01*
X137643971Y-57192828D01*
X137450447Y-55160828D02*
X137498828Y-55233400D01*
X137450447Y-55305971D01*
X137402066Y-55233400D01*
X137450447Y-55160828D01*
X137450447Y-55305971D01*
X136821495Y-56684828D02*
X136918257Y-56612257D01*
X136966638Y-56539685D01*
X137015019Y-56394542D01*
X137015019Y-55959114D01*
X136966638Y-55813971D01*
X136918257Y-55741400D01*
X136821495Y-55668828D01*
X136676352Y-55668828D01*
X136579590Y-55741400D01*
X136531209Y-55813971D01*
X136482828Y-55959114D01*
X136482828Y-56394542D01*
X136531209Y-56539685D01*
X136579590Y-56612257D01*
X136676352Y-56684828D01*
X136821495Y-56684828D01*
X136047400Y-56684828D02*
X136047400Y-55160828D01*
X135611971Y-56684828D02*
X135611971Y-55886542D01*
X135660352Y-55741400D01*
X135757114Y-55668828D01*
X135902257Y-55668828D01*
X135999019Y-55741400D01*
X136047400Y-55813971D01*
X135128161Y-55668828D02*
X135128161Y-56684828D01*
X135128161Y-55813971D02*
X135079780Y-55741400D01*
X134983019Y-55668828D01*
X134837876Y-55668828D01*
X134741114Y-55741400D01*
X134692733Y-55886542D01*
X134692733Y-56684828D01*
X134305685Y-55668828D02*
X134112161Y-56684828D01*
X133918638Y-55959114D01*
X133725114Y-56684828D01*
X133531590Y-55668828D01*
X133144542Y-56684828D02*
X133144542Y-55668828D01*
X133144542Y-55160828D02*
X133192923Y-55233400D01*
X133144542Y-55305971D01*
X133096161Y-55233400D01*
X133144542Y-55160828D01*
X133144542Y-55305971D01*
X132660733Y-55668828D02*
X132660733Y-56684828D01*
X132660733Y-55813971D02*
X132612352Y-55741400D01*
X132515590Y-55668828D01*
X132370447Y-55668828D01*
X132273685Y-55741400D01*
X132225304Y-55886542D01*
X132225304Y-56684828D01*
X131306066Y-56684828D02*
X131306066Y-55886542D01*
X131354447Y-55741400D01*
X131451209Y-55668828D01*
X131644733Y-55668828D01*
X131741495Y-55741400D01*
X131306066Y-56612257D02*
X131402828Y-56684828D01*
X131644733Y-56684828D01*
X131741495Y-56612257D01*
X131789876Y-56467114D01*
X131789876Y-56321971D01*
X131741495Y-56176828D01*
X131644733Y-56104257D01*
X131402828Y-56104257D01*
X131306066Y-56031685D01*
X130822257Y-55668828D02*
X130822257Y-56684828D01*
X130822257Y-55813971D02*
X130773876Y-55741400D01*
X130677114Y-55668828D01*
X130531971Y-55668828D01*
X130435209Y-55741400D01*
X130386828Y-55886542D01*
X130386828Y-56684828D01*
X129951399Y-56612257D02*
X129854638Y-56684828D01*
X129661114Y-56684828D01*
X129564352Y-56612257D01*
X129515971Y-56467114D01*
X129515971Y-56394542D01*
X129564352Y-56249400D01*
X129661114Y-56176828D01*
X129806257Y-56176828D01*
X129903019Y-56104257D01*
X129951399Y-55959114D01*
X129951399Y-55886542D01*
X129903019Y-55741400D01*
X129806257Y-55668828D01*
X129661114Y-55668828D01*
X129564352Y-55741400D01*
X128354828Y-55088257D02*
X129225685Y-57047685D01*
X128064542Y-55305971D02*
X128016161Y-55233400D01*
X127919400Y-55160828D01*
X127677495Y-55160828D01*
X127580733Y-55233400D01*
X127532352Y-55305971D01*
X127483971Y-55451114D01*
X127483971Y-55596257D01*
X127532352Y-55813971D01*
X128112923Y-56684828D01*
X127483971Y-56684828D01*
X126855019Y-55160828D02*
X126758257Y-55160828D01*
X126661495Y-55233400D01*
X126613114Y-55305971D01*
X126564733Y-55451114D01*
X126516352Y-55741400D01*
X126516352Y-56104257D01*
X126564733Y-56394542D01*
X126613114Y-56539685D01*
X126661495Y-56612257D01*
X126758257Y-56684828D01*
X126855019Y-56684828D01*
X126951780Y-56612257D01*
X127000161Y-56539685D01*
X127048542Y-56394542D01*
X127096923Y-56104257D01*
X127096923Y-55741400D01*
X127048542Y-55451114D01*
X127000161Y-55305971D01*
X126951780Y-55233400D01*
X126855019Y-55160828D01*
X125645495Y-55160828D02*
X125839019Y-55160828D01*
X125935780Y-55233400D01*
X125984161Y-55305971D01*
X126080923Y-55523685D01*
X126129304Y-55813971D01*
X126129304Y-56394542D01*
X126080923Y-56539685D01*
X126032542Y-56612257D01*
X125935780Y-56684828D01*
X125742257Y-56684828D01*
X125645495Y-56612257D01*
X125597114Y-56539685D01*
X125548733Y-56394542D01*
X125548733Y-56031685D01*
X125597114Y-55886542D01*
X125645495Y-55813971D01*
X125742257Y-55741400D01*
X125935780Y-55741400D01*
X126032542Y-55813971D01*
X126080923Y-55886542D01*
X126129304Y-56031685D01*
X124919780Y-55160828D02*
X124823019Y-55160828D01*
X124726257Y-55233400D01*
X124677876Y-55305971D01*
X124629495Y-55451114D01*
X124581114Y-55741400D01*
X124581114Y-56104257D01*
X124629495Y-56394542D01*
X124677876Y-56539685D01*
X124726257Y-56612257D01*
X124823019Y-56684828D01*
X124919780Y-56684828D01*
X125016542Y-56612257D01*
X125064923Y-56539685D01*
X125113304Y-56394542D01*
X125161685Y-56104257D01*
X125161685Y-55741400D01*
X125113304Y-55451114D01*
X125064923Y-55305971D01*
X125016542Y-55233400D01*
X124919780Y-55160828D01*
X124145685Y-56104257D02*
X123371590Y-56104257D01*
X122694257Y-55160828D02*
X122500733Y-55160828D01*
X122403971Y-55233400D01*
X122307209Y-55378542D01*
X122258828Y-55668828D01*
X122258828Y-56176828D01*
X122307209Y-56467114D01*
X122403971Y-56612257D01*
X122500733Y-56684828D01*
X122694257Y-56684828D01*
X122791019Y-56612257D01*
X122887780Y-56467114D01*
X122936161Y-56176828D01*
X122936161Y-55668828D01*
X122887780Y-55378542D01*
X122791019Y-55233400D01*
X122694257Y-55160828D01*
X121242828Y-56684828D02*
X121581495Y-55959114D01*
X121823400Y-56684828D02*
X121823400Y-55160828D01*
X121436352Y-55160828D01*
X121339590Y-55233400D01*
X121291209Y-55305971D01*
X121242828Y-55451114D01*
X121242828Y-55668828D01*
X121291209Y-55813971D01*
X121339590Y-55886542D01*
X121436352Y-55959114D01*
X121823400Y-55959114D01*
X120807400Y-56684828D02*
X120807400Y-55160828D01*
X120130066Y-55160828D02*
X119936542Y-55160828D01*
X119839780Y-55233400D01*
X119743019Y-55378542D01*
X119694638Y-55668828D01*
X119694638Y-56176828D01*
X119743019Y-56467114D01*
X119839780Y-56612257D01*
X119936542Y-56684828D01*
X120130066Y-56684828D01*
X120226828Y-56612257D01*
X120323590Y-56467114D01*
X120371971Y-56176828D01*
X120371971Y-55668828D01*
X120323590Y-55378542D01*
X120226828Y-55233400D01*
X120130066Y-55160828D01*
X119307590Y-55305971D02*
X119259209Y-55233400D01*
X119162447Y-55160828D01*
X118920542Y-55160828D01*
X118823780Y-55233400D01*
X118775400Y-55305971D01*
X118727019Y-55451114D01*
X118727019Y-55596257D01*
X118775400Y-55813971D01*
X119355971Y-56684828D01*
X118727019Y-56684828D01*
D11*
X94600000Y-107880000D02*
X95600000Y-107880000D01*
X94600000Y-112120000D02*
X95600000Y-112120000D01*
X120520000Y-116750000D02*
G75*
G03X120520000Y-116750000I-8120000J0D01*
G01*
X104319000Y-116750000D02*
X120481000Y-116750000D01*
X104320000Y-116790000D02*
X120480000Y-116790000D01*
X104320000Y-116830000D02*
X120480000Y-116830000D01*
X104320000Y-116870000D02*
X120480000Y-116870000D01*
X104321000Y-116910000D02*
X120479000Y-116910000D01*
X104322000Y-116950000D02*
X120478000Y-116950000D01*
X104323000Y-116990000D02*
X120477000Y-116990000D01*
X104324000Y-117030000D02*
X120476000Y-117030000D01*
X104326000Y-117070000D02*
X120474000Y-117070000D01*
X104327000Y-117110000D02*
X120473000Y-117110000D01*
X104329000Y-117150000D02*
X120471000Y-117150000D01*
X104331000Y-117190000D02*
X120469000Y-117190000D01*
X104334000Y-117230000D02*
X120466000Y-117230000D01*
X104336000Y-117270000D02*
X120464000Y-117270000D01*
X104339000Y-117310000D02*
X120461000Y-117310000D01*
X104342000Y-117350000D02*
X120458000Y-117350000D01*
X104345000Y-117390000D02*
X120455000Y-117390000D01*
X104348000Y-117430000D02*
X120452000Y-117430000D01*
X104351000Y-117471000D02*
X120449000Y-117471000D01*
X104355000Y-117511000D02*
X120445000Y-117511000D01*
X104359000Y-117551000D02*
X120441000Y-117551000D01*
X104363000Y-117591000D02*
X120437000Y-117591000D01*
X104367000Y-117631000D02*
X120433000Y-117631000D01*
X104372000Y-117671000D02*
X120428000Y-117671000D01*
X104376000Y-117711000D02*
X120424000Y-117711000D01*
X104381000Y-117751000D02*
X120419000Y-117751000D01*
X104386000Y-117791000D02*
X120414000Y-117791000D01*
X104392000Y-117831000D02*
X120408000Y-117831000D01*
X104397000Y-117871000D02*
X120403000Y-117871000D01*
X104403000Y-117911000D02*
X120397000Y-117911000D01*
X104409000Y-117951000D02*
X120391000Y-117951000D01*
X104415000Y-117991000D02*
X120385000Y-117991000D01*
X104421000Y-118031000D02*
X120379000Y-118031000D01*
X104428000Y-118071000D02*
X120372000Y-118071000D01*
X104434000Y-118111000D02*
X120366000Y-118111000D01*
X104441000Y-118151000D02*
X120359000Y-118151000D01*
X104448000Y-118191000D02*
X120352000Y-118191000D01*
X104456000Y-118231000D02*
X120344000Y-118231000D01*
X104463000Y-118271000D02*
X120337000Y-118271000D01*
X104471000Y-118311000D02*
X120329000Y-118311000D01*
X104479000Y-118351000D02*
X120321000Y-118351000D01*
X104487000Y-118391000D02*
X120313000Y-118391000D01*
X104495000Y-118431000D02*
X120305000Y-118431000D01*
X104504000Y-118471000D02*
X120296000Y-118471000D01*
X104513000Y-118511000D02*
X120287000Y-118511000D01*
X104522000Y-118551000D02*
X120278000Y-118551000D01*
X104531000Y-118591000D02*
X120269000Y-118591000D01*
X104540000Y-118631000D02*
X120260000Y-118631000D01*
X104550000Y-118671000D02*
X120250000Y-118671000D01*
X104560000Y-118711000D02*
X120240000Y-118711000D01*
X104570000Y-118751000D02*
X120230000Y-118751000D01*
X104580000Y-118791000D02*
X120220000Y-118791000D01*
X104590000Y-118831000D02*
X120210000Y-118831000D01*
X104601000Y-118871000D02*
X120199000Y-118871000D01*
X104612000Y-118911000D02*
X120188000Y-118911000D01*
X104623000Y-118951000D02*
X120177000Y-118951000D01*
X104635000Y-118991000D02*
X120165000Y-118991000D01*
X104646000Y-119031000D02*
X120154000Y-119031000D01*
X104658000Y-119071000D02*
X110960000Y-119071000D01*
X113840000Y-119071000D02*
X120142000Y-119071000D01*
X104670000Y-119111000D02*
X110960000Y-119111000D01*
X113840000Y-119111000D02*
X120130000Y-119111000D01*
X104682000Y-119151000D02*
X110960000Y-119151000D01*
X113840000Y-119151000D02*
X120118000Y-119151000D01*
X104695000Y-119191000D02*
X110960000Y-119191000D01*
X113840000Y-119191000D02*
X120105000Y-119191000D01*
X104707000Y-119231000D02*
X110960000Y-119231000D01*
X113840000Y-119231000D02*
X120093000Y-119231000D01*
X104720000Y-119271000D02*
X110960000Y-119271000D01*
X113840000Y-119271000D02*
X120080000Y-119271000D01*
X104734000Y-119311000D02*
X110960000Y-119311000D01*
X113840000Y-119311000D02*
X120066000Y-119311000D01*
X104747000Y-119351000D02*
X110960000Y-119351000D01*
X113840000Y-119351000D02*
X120053000Y-119351000D01*
X104761000Y-119391000D02*
X110960000Y-119391000D01*
X113840000Y-119391000D02*
X120039000Y-119391000D01*
X104775000Y-119431000D02*
X110960000Y-119431000D01*
X113840000Y-119431000D02*
X120025000Y-119431000D01*
X104789000Y-119471000D02*
X110960000Y-119471000D01*
X113840000Y-119471000D02*
X120011000Y-119471000D01*
X104803000Y-119511000D02*
X110960000Y-119511000D01*
X113840000Y-119511000D02*
X119997000Y-119511000D01*
X104818000Y-119551000D02*
X110960000Y-119551000D01*
X113840000Y-119551000D02*
X119982000Y-119551000D01*
X104832000Y-119591000D02*
X110960000Y-119591000D01*
X113840000Y-119591000D02*
X119968000Y-119591000D01*
X104847000Y-119631000D02*
X110960000Y-119631000D01*
X113840000Y-119631000D02*
X119953000Y-119631000D01*
X104863000Y-119671000D02*
X110960000Y-119671000D01*
X113840000Y-119671000D02*
X119937000Y-119671000D01*
X104878000Y-119711000D02*
X110960000Y-119711000D01*
X113840000Y-119711000D02*
X119922000Y-119711000D01*
X104894000Y-119751000D02*
X110960000Y-119751000D01*
X113840000Y-119751000D02*
X119906000Y-119751000D01*
X104910000Y-119791000D02*
X110960000Y-119791000D01*
X113840000Y-119791000D02*
X119890000Y-119791000D01*
X104926000Y-119831000D02*
X110960000Y-119831000D01*
X113840000Y-119831000D02*
X119874000Y-119831000D01*
X104943000Y-119871000D02*
X110960000Y-119871000D01*
X113840000Y-119871000D02*
X119857000Y-119871000D01*
X104960000Y-119911000D02*
X110960000Y-119911000D01*
X113840000Y-119911000D02*
X119840000Y-119911000D01*
X104977000Y-119951000D02*
X110960000Y-119951000D01*
X113840000Y-119951000D02*
X119823000Y-119951000D01*
X104994000Y-119991000D02*
X110960000Y-119991000D01*
X113840000Y-119991000D02*
X119806000Y-119991000D01*
X105011000Y-120031000D02*
X110960000Y-120031000D01*
X113840000Y-120031000D02*
X119789000Y-120031000D01*
X105029000Y-120071000D02*
X110960000Y-120071000D01*
X113840000Y-120071000D02*
X119771000Y-120071000D01*
X105047000Y-120111000D02*
X110960000Y-120111000D01*
X113840000Y-120111000D02*
X119753000Y-120111000D01*
X105066000Y-120151000D02*
X110960000Y-120151000D01*
X113840000Y-120151000D02*
X119734000Y-120151000D01*
X105084000Y-120191000D02*
X110960000Y-120191000D01*
X113840000Y-120191000D02*
X119716000Y-120191000D01*
X105103000Y-120231000D02*
X110960000Y-120231000D01*
X113840000Y-120231000D02*
X119697000Y-120231000D01*
X105122000Y-120271000D02*
X110960000Y-120271000D01*
X113840000Y-120271000D02*
X119678000Y-120271000D01*
X105142000Y-120311000D02*
X110960000Y-120311000D01*
X113840000Y-120311000D02*
X119658000Y-120311000D01*
X105161000Y-120351000D02*
X110960000Y-120351000D01*
X113840000Y-120351000D02*
X119639000Y-120351000D01*
X105181000Y-120391000D02*
X110960000Y-120391000D01*
X113840000Y-120391000D02*
X119619000Y-120391000D01*
X105201000Y-120431000D02*
X110960000Y-120431000D01*
X113840000Y-120431000D02*
X119599000Y-120431000D01*
X105222000Y-120471000D02*
X110960000Y-120471000D01*
X113840000Y-120471000D02*
X119578000Y-120471000D01*
X105243000Y-120511000D02*
X110960000Y-120511000D01*
X113840000Y-120511000D02*
X119557000Y-120511000D01*
X105264000Y-120551000D02*
X110960000Y-120551000D01*
X113840000Y-120551000D02*
X119536000Y-120551000D01*
X105285000Y-120591000D02*
X110960000Y-120591000D01*
X113840000Y-120591000D02*
X119515000Y-120591000D01*
X105306000Y-120631000D02*
X110960000Y-120631000D01*
X113840000Y-120631000D02*
X119494000Y-120631000D01*
X105328000Y-120671000D02*
X110960000Y-120671000D01*
X113840000Y-120671000D02*
X119472000Y-120671000D01*
X105351000Y-120711000D02*
X110960000Y-120711000D01*
X113840000Y-120711000D02*
X119449000Y-120711000D01*
X105373000Y-120751000D02*
X110960000Y-120751000D01*
X113840000Y-120751000D02*
X119427000Y-120751000D01*
X105396000Y-120791000D02*
X110960000Y-120791000D01*
X113840000Y-120791000D02*
X119404000Y-120791000D01*
X105419000Y-120831000D02*
X110960000Y-120831000D01*
X113840000Y-120831000D02*
X119381000Y-120831000D01*
X105442000Y-120871000D02*
X110960000Y-120871000D01*
X113840000Y-120871000D02*
X119358000Y-120871000D01*
X105466000Y-120911000D02*
X110960000Y-120911000D01*
X113840000Y-120911000D02*
X119334000Y-120911000D01*
X105490000Y-120951000D02*
X110960000Y-120951000D01*
X113840000Y-120951000D02*
X119310000Y-120951000D01*
X105514000Y-120991000D02*
X110960000Y-120991000D01*
X113840000Y-120991000D02*
X119286000Y-120991000D01*
X105539000Y-121031000D02*
X110960000Y-121031000D01*
X113840000Y-121031000D02*
X119261000Y-121031000D01*
X105564000Y-121071000D02*
X110960000Y-121071000D01*
X113840000Y-121071000D02*
X119236000Y-121071000D01*
X105589000Y-121111000D02*
X110960000Y-121111000D01*
X113840000Y-121111000D02*
X119211000Y-121111000D01*
X105615000Y-121151000D02*
X110960000Y-121151000D01*
X113840000Y-121151000D02*
X119185000Y-121151000D01*
X105641000Y-121191000D02*
X110960000Y-121191000D01*
X113840000Y-121191000D02*
X119159000Y-121191000D01*
X105667000Y-121231000D02*
X110960000Y-121231000D01*
X113840000Y-121231000D02*
X119133000Y-121231000D01*
X105694000Y-121271000D02*
X110960000Y-121271000D01*
X113840000Y-121271000D02*
X119106000Y-121271000D01*
X105721000Y-121311000D02*
X110960000Y-121311000D01*
X113840000Y-121311000D02*
X119079000Y-121311000D01*
X105748000Y-121351000D02*
X110960000Y-121351000D01*
X113840000Y-121351000D02*
X119052000Y-121351000D01*
X105776000Y-121391000D02*
X110960000Y-121391000D01*
X113840000Y-121391000D02*
X119024000Y-121391000D01*
X105804000Y-121431000D02*
X110960000Y-121431000D01*
X113840000Y-121431000D02*
X118996000Y-121431000D01*
X105832000Y-121471000D02*
X110960000Y-121471000D01*
X113840000Y-121471000D02*
X118968000Y-121471000D01*
X105861000Y-121511000D02*
X110960000Y-121511000D01*
X113840000Y-121511000D02*
X118939000Y-121511000D01*
X105890000Y-121551000D02*
X110960000Y-121551000D01*
X113840000Y-121551000D02*
X118910000Y-121551000D01*
X105920000Y-121591000D02*
X110960000Y-121591000D01*
X113840000Y-121591000D02*
X118880000Y-121591000D01*
X105950000Y-121631000D02*
X110960000Y-121631000D01*
X113840000Y-121631000D02*
X118850000Y-121631000D01*
X105980000Y-121671000D02*
X110960000Y-121671000D01*
X113840000Y-121671000D02*
X118820000Y-121671000D01*
X106010000Y-121711000D02*
X110960000Y-121711000D01*
X113840000Y-121711000D02*
X118790000Y-121711000D01*
X106042000Y-121751000D02*
X110960000Y-121751000D01*
X113840000Y-121751000D02*
X118758000Y-121751000D01*
X106073000Y-121791000D02*
X110960000Y-121791000D01*
X113840000Y-121791000D02*
X118727000Y-121791000D01*
X106105000Y-121831000D02*
X110960000Y-121831000D01*
X113840000Y-121831000D02*
X118695000Y-121831000D01*
X106137000Y-121871000D02*
X110960000Y-121871000D01*
X113840000Y-121871000D02*
X118663000Y-121871000D01*
X106170000Y-121911000D02*
X110960000Y-121911000D01*
X113840000Y-121911000D02*
X118630000Y-121911000D01*
X106203000Y-121951000D02*
X118597000Y-121951000D01*
X106237000Y-121991000D02*
X118563000Y-121991000D01*
X106271000Y-122031000D02*
X118529000Y-122031000D01*
X106305000Y-122071000D02*
X118495000Y-122071000D01*
X106340000Y-122111000D02*
X118460000Y-122111000D01*
X106375000Y-122151000D02*
X118425000Y-122151000D01*
X106411000Y-122191000D02*
X118389000Y-122191000D01*
X106448000Y-122231000D02*
X118352000Y-122231000D01*
X106484000Y-122271000D02*
X118316000Y-122271000D01*
X106522000Y-122311000D02*
X118278000Y-122311000D01*
X106560000Y-122351000D02*
X118240000Y-122351000D01*
X106598000Y-122391000D02*
X118202000Y-122391000D01*
X106637000Y-122431000D02*
X118163000Y-122431000D01*
X106676000Y-122471000D02*
X118124000Y-122471000D01*
X106716000Y-122511000D02*
X118084000Y-122511000D01*
X106757000Y-122551000D02*
X118043000Y-122551000D01*
X106798000Y-122591000D02*
X118002000Y-122591000D01*
X106840000Y-122631000D02*
X117960000Y-122631000D01*
X106882000Y-122671000D02*
X117918000Y-122671000D01*
X106925000Y-122711000D02*
X117875000Y-122711000D01*
X106968000Y-122751000D02*
X117832000Y-122751000D01*
X107012000Y-122791000D02*
X117788000Y-122791000D01*
X107057000Y-122831000D02*
X117743000Y-122831000D01*
X107103000Y-122871000D02*
X117697000Y-122871000D01*
X107149000Y-122911000D02*
X117651000Y-122911000D01*
X107196000Y-122951000D02*
X117604000Y-122951000D01*
X107244000Y-122991000D02*
X117556000Y-122991000D01*
X107292000Y-123031000D02*
X117508000Y-123031000D01*
X107341000Y-123071000D02*
X117459000Y-123071000D01*
X107391000Y-123111000D02*
X117409000Y-123111000D01*
X107442000Y-123151000D02*
X117358000Y-123151000D01*
X107494000Y-123191000D02*
X117306000Y-123191000D01*
X107546000Y-123231000D02*
X117254000Y-123231000D01*
X107600000Y-123271000D02*
X117200000Y-123271000D01*
X107654000Y-123311000D02*
X117146000Y-123311000D01*
X107709000Y-123351000D02*
X117091000Y-123351000D01*
X107766000Y-123391000D02*
X117034000Y-123391000D01*
X107823000Y-123431000D02*
X116977000Y-123431000D01*
X107881000Y-123471000D02*
X116919000Y-123471000D01*
X107941000Y-123511000D02*
X116859000Y-123511000D01*
X108002000Y-123551000D02*
X116798000Y-123551000D01*
X108064000Y-123591000D02*
X116736000Y-123591000D01*
X108127000Y-123631000D02*
X116673000Y-123631000D01*
X108191000Y-123671000D02*
X116609000Y-123671000D01*
X108257000Y-123711000D02*
X116543000Y-123711000D01*
X108324000Y-123751000D02*
X116476000Y-123751000D01*
X108393000Y-123791000D02*
X116407000Y-123791000D01*
X108464000Y-123831000D02*
X116336000Y-123831000D01*
X108536000Y-123871000D02*
X116264000Y-123871000D01*
X108610000Y-123911000D02*
X116190000Y-123911000D01*
X108685000Y-123951000D02*
X116115000Y-123951000D01*
X108763000Y-123991000D02*
X116037000Y-123991000D01*
X108843000Y-124031000D02*
X115957000Y-124031000D01*
X108925000Y-124071000D02*
X115875000Y-124071000D01*
X109010000Y-124111000D02*
X115790000Y-124111000D01*
X109097000Y-124151000D02*
X115703000Y-124151000D01*
X109187000Y-124191000D02*
X115613000Y-124191000D01*
X109280000Y-124231000D02*
X115520000Y-124231000D01*
X109376000Y-124271000D02*
X115424000Y-124271000D01*
X109476000Y-124311000D02*
X115324000Y-124311000D01*
X109580000Y-124351000D02*
X115220000Y-124351000D01*
X109689000Y-124391000D02*
X115111000Y-124391000D01*
X109803000Y-124431000D02*
X114997000Y-124431000D01*
X109922000Y-124471000D02*
X114878000Y-124471000D01*
X110049000Y-124511000D02*
X114751000Y-124511000D01*
X110182000Y-124551000D02*
X114618000Y-124551000D01*
X110326000Y-124591000D02*
X114474000Y-124591000D01*
X110480000Y-124631000D02*
X114320000Y-124631000D01*
X110648000Y-124671000D02*
X114152000Y-124671000D01*
X110836000Y-124711000D02*
X113964000Y-124711000D01*
X111049000Y-124751000D02*
X113751000Y-124751000D01*
X111302000Y-124791000D02*
X113498000Y-124791000D01*
X111635000Y-124831000D02*
X113165000Y-124831000D01*
X107845000Y-108060509D02*
X107845000Y-109660509D01*
X107045000Y-108860509D02*
X108645000Y-108860509D01*
X83820000Y-120850000D02*
G75*
G03X83820000Y-120850000I-8120000J0D01*
G01*
X67619000Y-120850000D02*
X83781000Y-120850000D01*
X67620000Y-120890000D02*
X83780000Y-120890000D01*
X67620000Y-120930000D02*
X83780000Y-120930000D01*
X67620000Y-120970000D02*
X83780000Y-120970000D01*
X67621000Y-121010000D02*
X83779000Y-121010000D01*
X67622000Y-121050000D02*
X83778000Y-121050000D01*
X67623000Y-121090000D02*
X83777000Y-121090000D01*
X67624000Y-121130000D02*
X83776000Y-121130000D01*
X67626000Y-121170000D02*
X83774000Y-121170000D01*
X67627000Y-121210000D02*
X83773000Y-121210000D01*
X67629000Y-121250000D02*
X83771000Y-121250000D01*
X67631000Y-121290000D02*
X83769000Y-121290000D01*
X67634000Y-121330000D02*
X83766000Y-121330000D01*
X67636000Y-121370000D02*
X83764000Y-121370000D01*
X67639000Y-121410000D02*
X83761000Y-121410000D01*
X67642000Y-121450000D02*
X83758000Y-121450000D01*
X67645000Y-121490000D02*
X83755000Y-121490000D01*
X67648000Y-121530000D02*
X83752000Y-121530000D01*
X67651000Y-121571000D02*
X83749000Y-121571000D01*
X67655000Y-121611000D02*
X83745000Y-121611000D01*
X67659000Y-121651000D02*
X83741000Y-121651000D01*
X67663000Y-121691000D02*
X83737000Y-121691000D01*
X67667000Y-121731000D02*
X83733000Y-121731000D01*
X67672000Y-121771000D02*
X83728000Y-121771000D01*
X67676000Y-121811000D02*
X83724000Y-121811000D01*
X67681000Y-121851000D02*
X83719000Y-121851000D01*
X67686000Y-121891000D02*
X83714000Y-121891000D01*
X67692000Y-121931000D02*
X83708000Y-121931000D01*
X67697000Y-121971000D02*
X83703000Y-121971000D01*
X67703000Y-122011000D02*
X83697000Y-122011000D01*
X67709000Y-122051000D02*
X83691000Y-122051000D01*
X67715000Y-122091000D02*
X83685000Y-122091000D01*
X67721000Y-122131000D02*
X83679000Y-122131000D01*
X67728000Y-122171000D02*
X83672000Y-122171000D01*
X67734000Y-122211000D02*
X83666000Y-122211000D01*
X67741000Y-122251000D02*
X83659000Y-122251000D01*
X67748000Y-122291000D02*
X83652000Y-122291000D01*
X67756000Y-122331000D02*
X83644000Y-122331000D01*
X67763000Y-122371000D02*
X83637000Y-122371000D01*
X67771000Y-122411000D02*
X83629000Y-122411000D01*
X67779000Y-122451000D02*
X83621000Y-122451000D01*
X67787000Y-122491000D02*
X83613000Y-122491000D01*
X67795000Y-122531000D02*
X83605000Y-122531000D01*
X67804000Y-122571000D02*
X83596000Y-122571000D01*
X67813000Y-122611000D02*
X83587000Y-122611000D01*
X67822000Y-122651000D02*
X83578000Y-122651000D01*
X67831000Y-122691000D02*
X83569000Y-122691000D01*
X67840000Y-122731000D02*
X83560000Y-122731000D01*
X67850000Y-122771000D02*
X83550000Y-122771000D01*
X67860000Y-122811000D02*
X83540000Y-122811000D01*
X67870000Y-122851000D02*
X83530000Y-122851000D01*
X67880000Y-122891000D02*
X83520000Y-122891000D01*
X67890000Y-122931000D02*
X83510000Y-122931000D01*
X67901000Y-122971000D02*
X83499000Y-122971000D01*
X67912000Y-123011000D02*
X83488000Y-123011000D01*
X67923000Y-123051000D02*
X83477000Y-123051000D01*
X67935000Y-123091000D02*
X83465000Y-123091000D01*
X67946000Y-123131000D02*
X83454000Y-123131000D01*
X67958000Y-123171000D02*
X74260000Y-123171000D01*
X77140000Y-123171000D02*
X83442000Y-123171000D01*
X67970000Y-123211000D02*
X74260000Y-123211000D01*
X77140000Y-123211000D02*
X83430000Y-123211000D01*
X67982000Y-123251000D02*
X74260000Y-123251000D01*
X77140000Y-123251000D02*
X83418000Y-123251000D01*
X67995000Y-123291000D02*
X74260000Y-123291000D01*
X77140000Y-123291000D02*
X83405000Y-123291000D01*
X68007000Y-123331000D02*
X74260000Y-123331000D01*
X77140000Y-123331000D02*
X83393000Y-123331000D01*
X68020000Y-123371000D02*
X74260000Y-123371000D01*
X77140000Y-123371000D02*
X83380000Y-123371000D01*
X68034000Y-123411000D02*
X74260000Y-123411000D01*
X77140000Y-123411000D02*
X83366000Y-123411000D01*
X68047000Y-123451000D02*
X74260000Y-123451000D01*
X77140000Y-123451000D02*
X83353000Y-123451000D01*
X68061000Y-123491000D02*
X74260000Y-123491000D01*
X77140000Y-123491000D02*
X83339000Y-123491000D01*
X68075000Y-123531000D02*
X74260000Y-123531000D01*
X77140000Y-123531000D02*
X83325000Y-123531000D01*
X68089000Y-123571000D02*
X74260000Y-123571000D01*
X77140000Y-123571000D02*
X83311000Y-123571000D01*
X68103000Y-123611000D02*
X74260000Y-123611000D01*
X77140000Y-123611000D02*
X83297000Y-123611000D01*
X68118000Y-123651000D02*
X74260000Y-123651000D01*
X77140000Y-123651000D02*
X83282000Y-123651000D01*
X68132000Y-123691000D02*
X74260000Y-123691000D01*
X77140000Y-123691000D02*
X83268000Y-123691000D01*
X68147000Y-123731000D02*
X74260000Y-123731000D01*
X77140000Y-123731000D02*
X83253000Y-123731000D01*
X68163000Y-123771000D02*
X74260000Y-123771000D01*
X77140000Y-123771000D02*
X83237000Y-123771000D01*
X68178000Y-123811000D02*
X74260000Y-123811000D01*
X77140000Y-123811000D02*
X83222000Y-123811000D01*
X68194000Y-123851000D02*
X74260000Y-123851000D01*
X77140000Y-123851000D02*
X83206000Y-123851000D01*
X68210000Y-123891000D02*
X74260000Y-123891000D01*
X77140000Y-123891000D02*
X83190000Y-123891000D01*
X68226000Y-123931000D02*
X74260000Y-123931000D01*
X77140000Y-123931000D02*
X83174000Y-123931000D01*
X68243000Y-123971000D02*
X74260000Y-123971000D01*
X77140000Y-123971000D02*
X83157000Y-123971000D01*
X68260000Y-124011000D02*
X74260000Y-124011000D01*
X77140000Y-124011000D02*
X83140000Y-124011000D01*
X68277000Y-124051000D02*
X74260000Y-124051000D01*
X77140000Y-124051000D02*
X83123000Y-124051000D01*
X68294000Y-124091000D02*
X74260000Y-124091000D01*
X77140000Y-124091000D02*
X83106000Y-124091000D01*
X68311000Y-124131000D02*
X74260000Y-124131000D01*
X77140000Y-124131000D02*
X83089000Y-124131000D01*
X68329000Y-124171000D02*
X74260000Y-124171000D01*
X77140000Y-124171000D02*
X83071000Y-124171000D01*
X68347000Y-124211000D02*
X74260000Y-124211000D01*
X77140000Y-124211000D02*
X83053000Y-124211000D01*
X68366000Y-124251000D02*
X74260000Y-124251000D01*
X77140000Y-124251000D02*
X83034000Y-124251000D01*
X68384000Y-124291000D02*
X74260000Y-124291000D01*
X77140000Y-124291000D02*
X83016000Y-124291000D01*
X68403000Y-124331000D02*
X74260000Y-124331000D01*
X77140000Y-124331000D02*
X82997000Y-124331000D01*
X68422000Y-124371000D02*
X74260000Y-124371000D01*
X77140000Y-124371000D02*
X82978000Y-124371000D01*
X68442000Y-124411000D02*
X74260000Y-124411000D01*
X77140000Y-124411000D02*
X82958000Y-124411000D01*
X68461000Y-124451000D02*
X74260000Y-124451000D01*
X77140000Y-124451000D02*
X82939000Y-124451000D01*
X68481000Y-124491000D02*
X74260000Y-124491000D01*
X77140000Y-124491000D02*
X82919000Y-124491000D01*
X68501000Y-124531000D02*
X74260000Y-124531000D01*
X77140000Y-124531000D02*
X82899000Y-124531000D01*
X68522000Y-124571000D02*
X74260000Y-124571000D01*
X77140000Y-124571000D02*
X82878000Y-124571000D01*
X68543000Y-124611000D02*
X74260000Y-124611000D01*
X77140000Y-124611000D02*
X82857000Y-124611000D01*
X68564000Y-124651000D02*
X74260000Y-124651000D01*
X77140000Y-124651000D02*
X82836000Y-124651000D01*
X68585000Y-124691000D02*
X74260000Y-124691000D01*
X77140000Y-124691000D02*
X82815000Y-124691000D01*
X68606000Y-124731000D02*
X74260000Y-124731000D01*
X77140000Y-124731000D02*
X82794000Y-124731000D01*
X68628000Y-124771000D02*
X74260000Y-124771000D01*
X77140000Y-124771000D02*
X82772000Y-124771000D01*
X68651000Y-124811000D02*
X74260000Y-124811000D01*
X77140000Y-124811000D02*
X82749000Y-124811000D01*
X68673000Y-124851000D02*
X74260000Y-124851000D01*
X77140000Y-124851000D02*
X82727000Y-124851000D01*
X68696000Y-124891000D02*
X74260000Y-124891000D01*
X77140000Y-124891000D02*
X82704000Y-124891000D01*
X68719000Y-124931000D02*
X74260000Y-124931000D01*
X77140000Y-124931000D02*
X82681000Y-124931000D01*
X68742000Y-124971000D02*
X74260000Y-124971000D01*
X77140000Y-124971000D02*
X82658000Y-124971000D01*
X68766000Y-125011000D02*
X74260000Y-125011000D01*
X77140000Y-125011000D02*
X82634000Y-125011000D01*
X68790000Y-125051000D02*
X74260000Y-125051000D01*
X77140000Y-125051000D02*
X82610000Y-125051000D01*
X68814000Y-125091000D02*
X74260000Y-125091000D01*
X77140000Y-125091000D02*
X82586000Y-125091000D01*
X68839000Y-125131000D02*
X74260000Y-125131000D01*
X77140000Y-125131000D02*
X82561000Y-125131000D01*
X68864000Y-125171000D02*
X74260000Y-125171000D01*
X77140000Y-125171000D02*
X82536000Y-125171000D01*
X68889000Y-125211000D02*
X74260000Y-125211000D01*
X77140000Y-125211000D02*
X82511000Y-125211000D01*
X68915000Y-125251000D02*
X74260000Y-125251000D01*
X77140000Y-125251000D02*
X82485000Y-125251000D01*
X68941000Y-125291000D02*
X74260000Y-125291000D01*
X77140000Y-125291000D02*
X82459000Y-125291000D01*
X68967000Y-125331000D02*
X74260000Y-125331000D01*
X77140000Y-125331000D02*
X82433000Y-125331000D01*
X68994000Y-125371000D02*
X74260000Y-125371000D01*
X77140000Y-125371000D02*
X82406000Y-125371000D01*
X69021000Y-125411000D02*
X74260000Y-125411000D01*
X77140000Y-125411000D02*
X82379000Y-125411000D01*
X69048000Y-125451000D02*
X74260000Y-125451000D01*
X77140000Y-125451000D02*
X82352000Y-125451000D01*
X69076000Y-125491000D02*
X74260000Y-125491000D01*
X77140000Y-125491000D02*
X82324000Y-125491000D01*
X69104000Y-125531000D02*
X74260000Y-125531000D01*
X77140000Y-125531000D02*
X82296000Y-125531000D01*
X69132000Y-125571000D02*
X74260000Y-125571000D01*
X77140000Y-125571000D02*
X82268000Y-125571000D01*
X69161000Y-125611000D02*
X74260000Y-125611000D01*
X77140000Y-125611000D02*
X82239000Y-125611000D01*
X69190000Y-125651000D02*
X74260000Y-125651000D01*
X77140000Y-125651000D02*
X82210000Y-125651000D01*
X69220000Y-125691000D02*
X74260000Y-125691000D01*
X77140000Y-125691000D02*
X82180000Y-125691000D01*
X69250000Y-125731000D02*
X74260000Y-125731000D01*
X77140000Y-125731000D02*
X82150000Y-125731000D01*
X69280000Y-125771000D02*
X74260000Y-125771000D01*
X77140000Y-125771000D02*
X82120000Y-125771000D01*
X69310000Y-125811000D02*
X74260000Y-125811000D01*
X77140000Y-125811000D02*
X82090000Y-125811000D01*
X69342000Y-125851000D02*
X74260000Y-125851000D01*
X77140000Y-125851000D02*
X82058000Y-125851000D01*
X69373000Y-125891000D02*
X74260000Y-125891000D01*
X77140000Y-125891000D02*
X82027000Y-125891000D01*
X69405000Y-125931000D02*
X74260000Y-125931000D01*
X77140000Y-125931000D02*
X81995000Y-125931000D01*
X69437000Y-125971000D02*
X74260000Y-125971000D01*
X77140000Y-125971000D02*
X81963000Y-125971000D01*
X69470000Y-126011000D02*
X74260000Y-126011000D01*
X77140000Y-126011000D02*
X81930000Y-126011000D01*
X69503000Y-126051000D02*
X81897000Y-126051000D01*
X69537000Y-126091000D02*
X81863000Y-126091000D01*
X69571000Y-126131000D02*
X81829000Y-126131000D01*
X69605000Y-126171000D02*
X81795000Y-126171000D01*
X69640000Y-126211000D02*
X81760000Y-126211000D01*
X69675000Y-126251000D02*
X81725000Y-126251000D01*
X69711000Y-126291000D02*
X81689000Y-126291000D01*
X69748000Y-126331000D02*
X81652000Y-126331000D01*
X69784000Y-126371000D02*
X81616000Y-126371000D01*
X69822000Y-126411000D02*
X81578000Y-126411000D01*
X69860000Y-126451000D02*
X81540000Y-126451000D01*
X69898000Y-126491000D02*
X81502000Y-126491000D01*
X69937000Y-126531000D02*
X81463000Y-126531000D01*
X69976000Y-126571000D02*
X81424000Y-126571000D01*
X70016000Y-126611000D02*
X81384000Y-126611000D01*
X70057000Y-126651000D02*
X81343000Y-126651000D01*
X70098000Y-126691000D02*
X81302000Y-126691000D01*
X70140000Y-126731000D02*
X81260000Y-126731000D01*
X70182000Y-126771000D02*
X81218000Y-126771000D01*
X70225000Y-126811000D02*
X81175000Y-126811000D01*
X70268000Y-126851000D02*
X81132000Y-126851000D01*
X70312000Y-126891000D02*
X81088000Y-126891000D01*
X70357000Y-126931000D02*
X81043000Y-126931000D01*
X70403000Y-126971000D02*
X80997000Y-126971000D01*
X70449000Y-127011000D02*
X80951000Y-127011000D01*
X70496000Y-127051000D02*
X80904000Y-127051000D01*
X70544000Y-127091000D02*
X80856000Y-127091000D01*
X70592000Y-127131000D02*
X80808000Y-127131000D01*
X70641000Y-127171000D02*
X80759000Y-127171000D01*
X70691000Y-127211000D02*
X80709000Y-127211000D01*
X70742000Y-127251000D02*
X80658000Y-127251000D01*
X70794000Y-127291000D02*
X80606000Y-127291000D01*
X70846000Y-127331000D02*
X80554000Y-127331000D01*
X70900000Y-127371000D02*
X80500000Y-127371000D01*
X70954000Y-127411000D02*
X80446000Y-127411000D01*
X71009000Y-127451000D02*
X80391000Y-127451000D01*
X71066000Y-127491000D02*
X80334000Y-127491000D01*
X71123000Y-127531000D02*
X80277000Y-127531000D01*
X71181000Y-127571000D02*
X80219000Y-127571000D01*
X71241000Y-127611000D02*
X80159000Y-127611000D01*
X71302000Y-127651000D02*
X80098000Y-127651000D01*
X71364000Y-127691000D02*
X80036000Y-127691000D01*
X71427000Y-127731000D02*
X79973000Y-127731000D01*
X71491000Y-127771000D02*
X79909000Y-127771000D01*
X71557000Y-127811000D02*
X79843000Y-127811000D01*
X71624000Y-127851000D02*
X79776000Y-127851000D01*
X71693000Y-127891000D02*
X79707000Y-127891000D01*
X71764000Y-127931000D02*
X79636000Y-127931000D01*
X71836000Y-127971000D02*
X79564000Y-127971000D01*
X71910000Y-128011000D02*
X79490000Y-128011000D01*
X71985000Y-128051000D02*
X79415000Y-128051000D01*
X72063000Y-128091000D02*
X79337000Y-128091000D01*
X72143000Y-128131000D02*
X79257000Y-128131000D01*
X72225000Y-128171000D02*
X79175000Y-128171000D01*
X72310000Y-128211000D02*
X79090000Y-128211000D01*
X72397000Y-128251000D02*
X79003000Y-128251000D01*
X72487000Y-128291000D02*
X78913000Y-128291000D01*
X72580000Y-128331000D02*
X78820000Y-128331000D01*
X72676000Y-128371000D02*
X78724000Y-128371000D01*
X72776000Y-128411000D02*
X78624000Y-128411000D01*
X72880000Y-128451000D02*
X78520000Y-128451000D01*
X72989000Y-128491000D02*
X78411000Y-128491000D01*
X73103000Y-128531000D02*
X78297000Y-128531000D01*
X73222000Y-128571000D02*
X78178000Y-128571000D01*
X73349000Y-128611000D02*
X78051000Y-128611000D01*
X73482000Y-128651000D02*
X77918000Y-128651000D01*
X73626000Y-128691000D02*
X77774000Y-128691000D01*
X73780000Y-128731000D02*
X77620000Y-128731000D01*
X73948000Y-128771000D02*
X77452000Y-128771000D01*
X74136000Y-128811000D02*
X77264000Y-128811000D01*
X74349000Y-128851000D02*
X77051000Y-128851000D01*
X74602000Y-128891000D02*
X76798000Y-128891000D01*
X74935000Y-128931000D02*
X76465000Y-128931000D01*
X71145000Y-112160509D02*
X71145000Y-113760509D01*
X70345000Y-112960509D02*
X71945000Y-112960509D01*
X88091491Y-55949000D02*
X88091491Y-57549000D01*
X88891491Y-56749000D02*
X87291491Y-56749000D01*
X72121000Y-60539000D02*
X72121000Y-62069000D01*
X72161000Y-60206000D02*
X72161000Y-62402000D01*
X72201000Y-59953000D02*
X72201000Y-62655000D01*
X72241000Y-59740000D02*
X72241000Y-62868000D01*
X72281000Y-59552000D02*
X72281000Y-63056000D01*
X72321000Y-59384000D02*
X72321000Y-63224000D01*
X72361000Y-59230000D02*
X72361000Y-63378000D01*
X72401000Y-59086000D02*
X72401000Y-63522000D01*
X72441000Y-58953000D02*
X72441000Y-63655000D01*
X72481000Y-58826000D02*
X72481000Y-63782000D01*
X72521000Y-58707000D02*
X72521000Y-63901000D01*
X72561000Y-58593000D02*
X72561000Y-64015000D01*
X72601000Y-58484000D02*
X72601000Y-64124000D01*
X72641000Y-58380000D02*
X72641000Y-64228000D01*
X72681000Y-58280000D02*
X72681000Y-64328000D01*
X72721000Y-58184000D02*
X72721000Y-64424000D01*
X72761000Y-58091000D02*
X72761000Y-64517000D01*
X72801000Y-58001000D02*
X72801000Y-64607000D01*
X72841000Y-57914000D02*
X72841000Y-64694000D01*
X72881000Y-57829000D02*
X72881000Y-64779000D01*
X72921000Y-57747000D02*
X72921000Y-64861000D01*
X72961000Y-57667000D02*
X72961000Y-64941000D01*
X73001000Y-57589000D02*
X73001000Y-65019000D01*
X73041000Y-57514000D02*
X73041000Y-65094000D01*
X73081000Y-57440000D02*
X73081000Y-65168000D01*
X73121000Y-57368000D02*
X73121000Y-65240000D01*
X73161000Y-57297000D02*
X73161000Y-65311000D01*
X73201000Y-57228000D02*
X73201000Y-65380000D01*
X73241000Y-57161000D02*
X73241000Y-65447000D01*
X73281000Y-57095000D02*
X73281000Y-65513000D01*
X73321000Y-57031000D02*
X73321000Y-65577000D01*
X73361000Y-56968000D02*
X73361000Y-65640000D01*
X73401000Y-56906000D02*
X73401000Y-65702000D01*
X73441000Y-56845000D02*
X73441000Y-65763000D01*
X73481000Y-56785000D02*
X73481000Y-65823000D01*
X73521000Y-56727000D02*
X73521000Y-65881000D01*
X73561000Y-56670000D02*
X73561000Y-65938000D01*
X73601000Y-56613000D02*
X73601000Y-65995000D01*
X73641000Y-56558000D02*
X73641000Y-66050000D01*
X73681000Y-56504000D02*
X73681000Y-66104000D01*
X73721000Y-56450000D02*
X73721000Y-66158000D01*
X73761000Y-56398000D02*
X73761000Y-66210000D01*
X73801000Y-56346000D02*
X73801000Y-66262000D01*
X73841000Y-56295000D02*
X73841000Y-66313000D01*
X73881000Y-56245000D02*
X73881000Y-66363000D01*
X73921000Y-56196000D02*
X73921000Y-66412000D01*
X73961000Y-56148000D02*
X73961000Y-66460000D01*
X74001000Y-56100000D02*
X74001000Y-66508000D01*
X74041000Y-56053000D02*
X74041000Y-66555000D01*
X74081000Y-56007000D02*
X74081000Y-66601000D01*
X74121000Y-55961000D02*
X74121000Y-66647000D01*
X74161000Y-55916000D02*
X74161000Y-66692000D01*
X74201000Y-55872000D02*
X74201000Y-66736000D01*
X74241000Y-55829000D02*
X74241000Y-66779000D01*
X74281000Y-55786000D02*
X74281000Y-66822000D01*
X74321000Y-55744000D02*
X74321000Y-66864000D01*
X74361000Y-55702000D02*
X74361000Y-66906000D01*
X74401000Y-55661000D02*
X74401000Y-66947000D01*
X74441000Y-55620000D02*
X74441000Y-66988000D01*
X74481000Y-55580000D02*
X74481000Y-67028000D01*
X74521000Y-55541000D02*
X74521000Y-67067000D01*
X74561000Y-55502000D02*
X74561000Y-67106000D01*
X74601000Y-55464000D02*
X74601000Y-67144000D01*
X74641000Y-55426000D02*
X74641000Y-67182000D01*
X74681000Y-55388000D02*
X74681000Y-67220000D01*
X74721000Y-55352000D02*
X74721000Y-67256000D01*
X74761000Y-55315000D02*
X74761000Y-67293000D01*
X74801000Y-55279000D02*
X74801000Y-67329000D01*
X74841000Y-55244000D02*
X74841000Y-67364000D01*
X74881000Y-55209000D02*
X74881000Y-67399000D01*
X74921000Y-55175000D02*
X74921000Y-67433000D01*
X74961000Y-55141000D02*
X74961000Y-67467000D01*
X75001000Y-55107000D02*
X75001000Y-67501000D01*
X75041000Y-62744000D02*
X75041000Y-67534000D01*
X75041000Y-55074000D02*
X75041000Y-59864000D01*
X75081000Y-62744000D02*
X75081000Y-67567000D01*
X75081000Y-55041000D02*
X75081000Y-59864000D01*
X75121000Y-62744000D02*
X75121000Y-67599000D01*
X75121000Y-55009000D02*
X75121000Y-59864000D01*
X75161000Y-62744000D02*
X75161000Y-67631000D01*
X75161000Y-54977000D02*
X75161000Y-59864000D01*
X75201000Y-62744000D02*
X75201000Y-67662000D01*
X75201000Y-54946000D02*
X75201000Y-59864000D01*
X75241000Y-62744000D02*
X75241000Y-67694000D01*
X75241000Y-54914000D02*
X75241000Y-59864000D01*
X75281000Y-62744000D02*
X75281000Y-67724000D01*
X75281000Y-54884000D02*
X75281000Y-59864000D01*
X75321000Y-62744000D02*
X75321000Y-67754000D01*
X75321000Y-54854000D02*
X75321000Y-59864000D01*
X75361000Y-62744000D02*
X75361000Y-67784000D01*
X75361000Y-54824000D02*
X75361000Y-59864000D01*
X75401000Y-62744000D02*
X75401000Y-67814000D01*
X75401000Y-54794000D02*
X75401000Y-59864000D01*
X75441000Y-62744000D02*
X75441000Y-67843000D01*
X75441000Y-54765000D02*
X75441000Y-59864000D01*
X75481000Y-62744000D02*
X75481000Y-67872000D01*
X75481000Y-54736000D02*
X75481000Y-59864000D01*
X75521000Y-62744000D02*
X75521000Y-67900000D01*
X75521000Y-54708000D02*
X75521000Y-59864000D01*
X75561000Y-62744000D02*
X75561000Y-67928000D01*
X75561000Y-54680000D02*
X75561000Y-59864000D01*
X75601000Y-62744000D02*
X75601000Y-67956000D01*
X75601000Y-54652000D02*
X75601000Y-59864000D01*
X75641000Y-62744000D02*
X75641000Y-67983000D01*
X75641000Y-54625000D02*
X75641000Y-59864000D01*
X75681000Y-62744000D02*
X75681000Y-68010000D01*
X75681000Y-54598000D02*
X75681000Y-59864000D01*
X75721000Y-62744000D02*
X75721000Y-68037000D01*
X75721000Y-54571000D02*
X75721000Y-59864000D01*
X75761000Y-62744000D02*
X75761000Y-68063000D01*
X75761000Y-54545000D02*
X75761000Y-59864000D01*
X75801000Y-62744000D02*
X75801000Y-68089000D01*
X75801000Y-54519000D02*
X75801000Y-59864000D01*
X75841000Y-62744000D02*
X75841000Y-68115000D01*
X75841000Y-54493000D02*
X75841000Y-59864000D01*
X75881000Y-62744000D02*
X75881000Y-68140000D01*
X75881000Y-54468000D02*
X75881000Y-59864000D01*
X75921000Y-62744000D02*
X75921000Y-68165000D01*
X75921000Y-54443000D02*
X75921000Y-59864000D01*
X75961000Y-62744000D02*
X75961000Y-68190000D01*
X75961000Y-54418000D02*
X75961000Y-59864000D01*
X76001000Y-62744000D02*
X76001000Y-68214000D01*
X76001000Y-54394000D02*
X76001000Y-59864000D01*
X76041000Y-62744000D02*
X76041000Y-68238000D01*
X76041000Y-54370000D02*
X76041000Y-59864000D01*
X76081000Y-62744000D02*
X76081000Y-68262000D01*
X76081000Y-54346000D02*
X76081000Y-59864000D01*
X76121000Y-62744000D02*
X76121000Y-68285000D01*
X76121000Y-54323000D02*
X76121000Y-59864000D01*
X76161000Y-62744000D02*
X76161000Y-68308000D01*
X76161000Y-54300000D02*
X76161000Y-59864000D01*
X76201000Y-62744000D02*
X76201000Y-68331000D01*
X76201000Y-54277000D02*
X76201000Y-59864000D01*
X76241000Y-62744000D02*
X76241000Y-68353000D01*
X76241000Y-54255000D02*
X76241000Y-59864000D01*
X76281000Y-62744000D02*
X76281000Y-68376000D01*
X76281000Y-54232000D02*
X76281000Y-59864000D01*
X76321000Y-62744000D02*
X76321000Y-68398000D01*
X76321000Y-54210000D02*
X76321000Y-59864000D01*
X76361000Y-62744000D02*
X76361000Y-68419000D01*
X76361000Y-54189000D02*
X76361000Y-59864000D01*
X76401000Y-62744000D02*
X76401000Y-68440000D01*
X76401000Y-54168000D02*
X76401000Y-59864000D01*
X76441000Y-62744000D02*
X76441000Y-68461000D01*
X76441000Y-54147000D02*
X76441000Y-59864000D01*
X76481000Y-62744000D02*
X76481000Y-68482000D01*
X76481000Y-54126000D02*
X76481000Y-59864000D01*
X76521000Y-62744000D02*
X76521000Y-68503000D01*
X76521000Y-54105000D02*
X76521000Y-59864000D01*
X76561000Y-62744000D02*
X76561000Y-68523000D01*
X76561000Y-54085000D02*
X76561000Y-59864000D01*
X76601000Y-62744000D02*
X76601000Y-68543000D01*
X76601000Y-54065000D02*
X76601000Y-59864000D01*
X76641000Y-62744000D02*
X76641000Y-68562000D01*
X76641000Y-54046000D02*
X76641000Y-59864000D01*
X76681000Y-62744000D02*
X76681000Y-68582000D01*
X76681000Y-54026000D02*
X76681000Y-59864000D01*
X76721000Y-62744000D02*
X76721000Y-68601000D01*
X76721000Y-54007000D02*
X76721000Y-59864000D01*
X76761000Y-62744000D02*
X76761000Y-68620000D01*
X76761000Y-53988000D02*
X76761000Y-59864000D01*
X76801000Y-62744000D02*
X76801000Y-68638000D01*
X76801000Y-53970000D02*
X76801000Y-59864000D01*
X76841000Y-62744000D02*
X76841000Y-68657000D01*
X76841000Y-53951000D02*
X76841000Y-59864000D01*
X76881000Y-62744000D02*
X76881000Y-68675000D01*
X76881000Y-53933000D02*
X76881000Y-59864000D01*
X76921000Y-62744000D02*
X76921000Y-68693000D01*
X76921000Y-53915000D02*
X76921000Y-59864000D01*
X76961000Y-62744000D02*
X76961000Y-68710000D01*
X76961000Y-53898000D02*
X76961000Y-59864000D01*
X77001000Y-62744000D02*
X77001000Y-68727000D01*
X77001000Y-53881000D02*
X77001000Y-59864000D01*
X77041000Y-62744000D02*
X77041000Y-68744000D01*
X77041000Y-53864000D02*
X77041000Y-59864000D01*
X77081000Y-62744000D02*
X77081000Y-68761000D01*
X77081000Y-53847000D02*
X77081000Y-59864000D01*
X77121000Y-62744000D02*
X77121000Y-68778000D01*
X77121000Y-53830000D02*
X77121000Y-59864000D01*
X77161000Y-62744000D02*
X77161000Y-68794000D01*
X77161000Y-53814000D02*
X77161000Y-59864000D01*
X77201000Y-62744000D02*
X77201000Y-68810000D01*
X77201000Y-53798000D02*
X77201000Y-59864000D01*
X77241000Y-62744000D02*
X77241000Y-68826000D01*
X77241000Y-53782000D02*
X77241000Y-59864000D01*
X77281000Y-62744000D02*
X77281000Y-68841000D01*
X77281000Y-53767000D02*
X77281000Y-59864000D01*
X77321000Y-62744000D02*
X77321000Y-68857000D01*
X77321000Y-53751000D02*
X77321000Y-59864000D01*
X77361000Y-62744000D02*
X77361000Y-68872000D01*
X77361000Y-53736000D02*
X77361000Y-59864000D01*
X77401000Y-62744000D02*
X77401000Y-68886000D01*
X77401000Y-53722000D02*
X77401000Y-59864000D01*
X77441000Y-62744000D02*
X77441000Y-68901000D01*
X77441000Y-53707000D02*
X77441000Y-59864000D01*
X77481000Y-62744000D02*
X77481000Y-68915000D01*
X77481000Y-53693000D02*
X77481000Y-59864000D01*
X77521000Y-62744000D02*
X77521000Y-68929000D01*
X77521000Y-53679000D02*
X77521000Y-59864000D01*
X77561000Y-62744000D02*
X77561000Y-68943000D01*
X77561000Y-53665000D02*
X77561000Y-59864000D01*
X77601000Y-62744000D02*
X77601000Y-68957000D01*
X77601000Y-53651000D02*
X77601000Y-59864000D01*
X77641000Y-62744000D02*
X77641000Y-68970000D01*
X77641000Y-53638000D02*
X77641000Y-59864000D01*
X77681000Y-62744000D02*
X77681000Y-68984000D01*
X77681000Y-53624000D02*
X77681000Y-59864000D01*
X77721000Y-62744000D02*
X77721000Y-68997000D01*
X77721000Y-53611000D02*
X77721000Y-59864000D01*
X77761000Y-62744000D02*
X77761000Y-69009000D01*
X77761000Y-53599000D02*
X77761000Y-59864000D01*
X77801000Y-62744000D02*
X77801000Y-69022000D01*
X77801000Y-53586000D02*
X77801000Y-59864000D01*
X77841000Y-62744000D02*
X77841000Y-69034000D01*
X77841000Y-53574000D02*
X77841000Y-59864000D01*
X77881000Y-62744000D02*
X77881000Y-69046000D01*
X77881000Y-53562000D02*
X77881000Y-59864000D01*
X77921000Y-53550000D02*
X77921000Y-69058000D01*
X77961000Y-53539000D02*
X77961000Y-69069000D01*
X78001000Y-53527000D02*
X78001000Y-69081000D01*
X78041000Y-53516000D02*
X78041000Y-69092000D01*
X78081000Y-53505000D02*
X78081000Y-69103000D01*
X78121000Y-53494000D02*
X78121000Y-69114000D01*
X78161000Y-53484000D02*
X78161000Y-69124000D01*
X78201000Y-53474000D02*
X78201000Y-69134000D01*
X78241000Y-53464000D02*
X78241000Y-69144000D01*
X78281000Y-53454000D02*
X78281000Y-69154000D01*
X78321000Y-53444000D02*
X78321000Y-69164000D01*
X78361000Y-53435000D02*
X78361000Y-69173000D01*
X78401000Y-53426000D02*
X78401000Y-69182000D01*
X78441000Y-53417000D02*
X78441000Y-69191000D01*
X78481000Y-53408000D02*
X78481000Y-69200000D01*
X78521000Y-53399000D02*
X78521000Y-69209000D01*
X78561000Y-53391000D02*
X78561000Y-69217000D01*
X78601000Y-53383000D02*
X78601000Y-69225000D01*
X78641000Y-53375000D02*
X78641000Y-69233000D01*
X78681000Y-53367000D02*
X78681000Y-69241000D01*
X78721000Y-53360000D02*
X78721000Y-69248000D01*
X78761000Y-53352000D02*
X78761000Y-69256000D01*
X78801000Y-53345000D02*
X78801000Y-69263000D01*
X78841000Y-53338000D02*
X78841000Y-69270000D01*
X78881000Y-53332000D02*
X78881000Y-69276000D01*
X78921000Y-53325000D02*
X78921000Y-69283000D01*
X78961000Y-53319000D02*
X78961000Y-69289000D01*
X79001000Y-53313000D02*
X79001000Y-69295000D01*
X79041000Y-53307000D02*
X79041000Y-69301000D01*
X79081000Y-53301000D02*
X79081000Y-69307000D01*
X79121000Y-53296000D02*
X79121000Y-69312000D01*
X79161000Y-53290000D02*
X79161000Y-69318000D01*
X79201000Y-53285000D02*
X79201000Y-69323000D01*
X79241000Y-53280000D02*
X79241000Y-69328000D01*
X79281000Y-53276000D02*
X79281000Y-69332000D01*
X79321000Y-53271000D02*
X79321000Y-69337000D01*
X79361000Y-53267000D02*
X79361000Y-69341000D01*
X79401000Y-53263000D02*
X79401000Y-69345000D01*
X79441000Y-53259000D02*
X79441000Y-69349000D01*
X79481000Y-53255000D02*
X79481000Y-69353000D01*
X79522000Y-53252000D02*
X79522000Y-69356000D01*
X79562000Y-53249000D02*
X79562000Y-69359000D01*
X79602000Y-53246000D02*
X79602000Y-69362000D01*
X79642000Y-53243000D02*
X79642000Y-69365000D01*
X79682000Y-53240000D02*
X79682000Y-69368000D01*
X79722000Y-53238000D02*
X79722000Y-69370000D01*
X79762000Y-53235000D02*
X79762000Y-69373000D01*
X79802000Y-53233000D02*
X79802000Y-69375000D01*
X79842000Y-53231000D02*
X79842000Y-69377000D01*
X79882000Y-53230000D02*
X79882000Y-69378000D01*
X79922000Y-53228000D02*
X79922000Y-69380000D01*
X79962000Y-53227000D02*
X79962000Y-69381000D01*
X80002000Y-53226000D02*
X80002000Y-69382000D01*
X80042000Y-53225000D02*
X80042000Y-69383000D01*
X80082000Y-53224000D02*
X80082000Y-69384000D01*
X80122000Y-53224000D02*
X80122000Y-69384000D01*
X80162000Y-53224000D02*
X80162000Y-69384000D01*
X80202000Y-53223000D02*
X80202000Y-69385000D01*
X88322000Y-61304000D02*
G75*
G03X88322000Y-61304000I-8120000J0D01*
G01*
X154557600Y-84286500D02*
X155557600Y-84286500D01*
X154557600Y-88526500D02*
X155557600Y-88526500D01*
X154914900Y-119458200D02*
X155914900Y-119458200D01*
X154914900Y-123698200D02*
X155914900Y-123698200D01*
X154916600Y-112312100D02*
X155916600Y-112312100D01*
X154916600Y-116552100D02*
X155916600Y-116552100D01*
X154914900Y-101576600D02*
X155914900Y-101576600D01*
X154914900Y-105816600D02*
X155914900Y-105816600D01*
D12*
X96266666Y-107452380D02*
X96600000Y-106976190D01*
X96838095Y-107452380D02*
X96838095Y-106452380D01*
X96457142Y-106452380D01*
X96361904Y-106500000D01*
X96314285Y-106547619D01*
X96266666Y-106642857D01*
X96266666Y-106785714D01*
X96314285Y-106880952D01*
X96361904Y-106928571D01*
X96457142Y-106976190D01*
X96838095Y-106976190D01*
X95838095Y-107452380D02*
X95838095Y-106452380D01*
X95266666Y-107452380D01*
X95266666Y-106452380D01*
X94266666Y-107452380D02*
X94838095Y-107452380D01*
X94552380Y-107452380D02*
X94552380Y-106452380D01*
X94647619Y-106595238D01*
X94742857Y-106690476D01*
X94838095Y-106738095D01*
X93361904Y-106452380D02*
X93838095Y-106452380D01*
X93885714Y-106928571D01*
X93838095Y-106880952D01*
X93742857Y-106833333D01*
X93504761Y-106833333D01*
X93409523Y-106880952D01*
X93361904Y-106928571D01*
X93314285Y-107023809D01*
X93314285Y-107261904D01*
X93361904Y-107357142D01*
X93409523Y-107404761D01*
X93504761Y-107452380D01*
X93742857Y-107452380D01*
X93838095Y-107404761D01*
X93885714Y-107357142D01*
X103507142Y-116107142D02*
X103554761Y-116059523D01*
X103602380Y-115916666D01*
X103602380Y-115821428D01*
X103554761Y-115678571D01*
X103459523Y-115583333D01*
X103364285Y-115535714D01*
X103173809Y-115488095D01*
X103030952Y-115488095D01*
X102840476Y-115535714D01*
X102745238Y-115583333D01*
X102650000Y-115678571D01*
X102602380Y-115821428D01*
X102602380Y-115916666D01*
X102650000Y-116059523D01*
X102697619Y-116107142D01*
X102602380Y-116440476D02*
X102602380Y-117107142D01*
X103602380Y-116678571D01*
X102602380Y-117916666D02*
X102602380Y-117726190D01*
X102650000Y-117630952D01*
X102697619Y-117583333D01*
X102840476Y-117488095D01*
X103030952Y-117440476D01*
X103411904Y-117440476D01*
X103507142Y-117488095D01*
X103554761Y-117535714D01*
X103602380Y-117630952D01*
X103602380Y-117821428D01*
X103554761Y-117916666D01*
X103507142Y-117964285D01*
X103411904Y-118011904D01*
X103173809Y-118011904D01*
X103078571Y-117964285D01*
X103030952Y-117916666D01*
X102983333Y-117821428D01*
X102983333Y-117630952D01*
X103030952Y-117535714D01*
X103078571Y-117488095D01*
X103173809Y-117440476D01*
X66807142Y-120207142D02*
X66854761Y-120159523D01*
X66902380Y-120016666D01*
X66902380Y-119921428D01*
X66854761Y-119778571D01*
X66759523Y-119683333D01*
X66664285Y-119635714D01*
X66473809Y-119588095D01*
X66330952Y-119588095D01*
X66140476Y-119635714D01*
X66045238Y-119683333D01*
X65950000Y-119778571D01*
X65902380Y-119921428D01*
X65902380Y-120016666D01*
X65950000Y-120159523D01*
X65997619Y-120207142D01*
X65902380Y-120540476D02*
X65902380Y-121207142D01*
X66902380Y-120778571D01*
X65902380Y-122064285D02*
X65902380Y-121588095D01*
X66378571Y-121540476D01*
X66330952Y-121588095D01*
X66283333Y-121683333D01*
X66283333Y-121921428D01*
X66330952Y-122016666D01*
X66378571Y-122064285D01*
X66473809Y-122111904D01*
X66711904Y-122111904D01*
X66807142Y-122064285D01*
X66854761Y-122016666D01*
X66902380Y-121921428D01*
X66902380Y-121683333D01*
X66854761Y-121588095D01*
X66807142Y-121540476D01*
X80844857Y-52411142D02*
X80892476Y-52458761D01*
X81035333Y-52506380D01*
X81130571Y-52506380D01*
X81273428Y-52458761D01*
X81368666Y-52363523D01*
X81416285Y-52268285D01*
X81463904Y-52077809D01*
X81463904Y-51934952D01*
X81416285Y-51744476D01*
X81368666Y-51649238D01*
X81273428Y-51554000D01*
X81130571Y-51506380D01*
X81035333Y-51506380D01*
X80892476Y-51554000D01*
X80844857Y-51601619D01*
X80511523Y-51506380D02*
X79844857Y-51506380D01*
X80273428Y-52506380D01*
X79035333Y-51839714D02*
X79035333Y-52506380D01*
X79273428Y-51458761D02*
X79511523Y-52173047D01*
X78892476Y-52173047D01*
X153428880Y-85784923D02*
X152952690Y-85451590D01*
X153428880Y-85213495D02*
X152428880Y-85213495D01*
X152428880Y-85594447D01*
X152476500Y-85689685D01*
X152524119Y-85737304D01*
X152619357Y-85784923D01*
X152762214Y-85784923D01*
X152857452Y-85737304D01*
X152905071Y-85689685D01*
X152952690Y-85594447D01*
X152952690Y-85213495D01*
X153428880Y-86213495D02*
X152428880Y-86213495D01*
X153428880Y-86784923D01*
X152428880Y-86784923D01*
X152762214Y-87689685D02*
X153428880Y-87689685D01*
X152381261Y-87451590D02*
X153095547Y-87213495D01*
X153095547Y-87832542D01*
X153708280Y-120963923D02*
X153232090Y-120630590D01*
X153708280Y-120392495D02*
X152708280Y-120392495D01*
X152708280Y-120773447D01*
X152755900Y-120868685D01*
X152803519Y-120916304D01*
X152898757Y-120963923D01*
X153041614Y-120963923D01*
X153136852Y-120916304D01*
X153184471Y-120868685D01*
X153232090Y-120773447D01*
X153232090Y-120392495D01*
X153708280Y-121392495D02*
X152708280Y-121392495D01*
X153708280Y-121963923D01*
X152708280Y-121963923D01*
X152708280Y-122344876D02*
X152708280Y-122963923D01*
X153089233Y-122630590D01*
X153089233Y-122773447D01*
X153136852Y-122868685D01*
X153184471Y-122916304D01*
X153279709Y-122963923D01*
X153517804Y-122963923D01*
X153613042Y-122916304D01*
X153660661Y-122868685D01*
X153708280Y-122773447D01*
X153708280Y-122487733D01*
X153660661Y-122392495D01*
X153613042Y-122344876D01*
X153847980Y-113597923D02*
X153371790Y-113264590D01*
X153847980Y-113026495D02*
X152847980Y-113026495D01*
X152847980Y-113407447D01*
X152895600Y-113502685D01*
X152943219Y-113550304D01*
X153038457Y-113597923D01*
X153181314Y-113597923D01*
X153276552Y-113550304D01*
X153324171Y-113502685D01*
X153371790Y-113407447D01*
X153371790Y-113026495D01*
X153847980Y-114026495D02*
X152847980Y-114026495D01*
X153847980Y-114597923D01*
X152847980Y-114597923D01*
X152943219Y-115026495D02*
X152895600Y-115074114D01*
X152847980Y-115169352D01*
X152847980Y-115407447D01*
X152895600Y-115502685D01*
X152943219Y-115550304D01*
X153038457Y-115597923D01*
X153133695Y-115597923D01*
X153276552Y-115550304D01*
X153847980Y-114978876D01*
X153847980Y-115597923D01*
X153733680Y-103145823D02*
X153257490Y-102812490D01*
X153733680Y-102574395D02*
X152733680Y-102574395D01*
X152733680Y-102955347D01*
X152781300Y-103050585D01*
X152828919Y-103098204D01*
X152924157Y-103145823D01*
X153067014Y-103145823D01*
X153162252Y-103098204D01*
X153209871Y-103050585D01*
X153257490Y-102955347D01*
X153257490Y-102574395D01*
X153733680Y-103574395D02*
X152733680Y-103574395D01*
X153733680Y-104145823D01*
X152733680Y-104145823D01*
X153733680Y-105145823D02*
X153733680Y-104574395D01*
X153733680Y-104860109D02*
X152733680Y-104860109D01*
X152876538Y-104764871D01*
X152971776Y-104669633D01*
X153019395Y-104574395D01*
%LPC*%
D13*
X94200000Y-111250000D03*
X94200000Y-110250000D03*
X94200000Y-110750000D03*
X94200000Y-109750000D03*
X94200000Y-109250000D03*
X94200000Y-108750000D03*
X96000000Y-111250000D03*
X96000000Y-110750000D03*
X96000000Y-110250000D03*
X96000000Y-109750000D03*
X96000000Y-109250000D03*
X96000000Y-108750000D03*
X94200000Y-111750000D03*
X96000000Y-111750000D03*
X94200000Y-108250000D03*
X96000000Y-108250000D03*
D14*
X112400000Y-120500000D03*
D15*
X112400000Y-113000000D03*
D14*
X75700000Y-124600000D03*
D15*
X75700000Y-117100000D03*
D14*
X76452000Y-61304000D03*
D15*
X83952000Y-61304000D03*
D16*
X85476000Y-97943500D03*
D17*
X82936000Y-97943500D03*
D18*
X114495500Y-108421000D03*
D19*
X122115500Y-108421000D03*
D13*
X154157600Y-87656500D03*
X154157600Y-86656500D03*
X154157600Y-87156500D03*
X154157600Y-86156500D03*
X154157600Y-85656500D03*
X154157600Y-85156500D03*
X155957600Y-87656500D03*
X155957600Y-87156500D03*
X155957600Y-86656500D03*
X155957600Y-86156500D03*
X155957600Y-85656500D03*
X155957600Y-85156500D03*
X154157600Y-88156500D03*
X155957600Y-88156500D03*
X154157600Y-84656500D03*
X155957600Y-84656500D03*
X154514900Y-122828200D03*
X154514900Y-121828200D03*
X154514900Y-122328200D03*
X154514900Y-121328200D03*
X154514900Y-120828200D03*
X154514900Y-120328200D03*
X156314900Y-122828200D03*
X156314900Y-122328200D03*
X156314900Y-121828200D03*
X156314900Y-121328200D03*
X156314900Y-120828200D03*
X156314900Y-120328200D03*
X154514900Y-123328200D03*
X156314900Y-123328200D03*
X154514900Y-119828200D03*
X156314900Y-119828200D03*
X154516600Y-115682100D03*
X154516600Y-114682100D03*
X154516600Y-115182100D03*
X154516600Y-114182100D03*
X154516600Y-113682100D03*
X154516600Y-113182100D03*
X156316600Y-115682100D03*
X156316600Y-115182100D03*
X156316600Y-114682100D03*
X156316600Y-114182100D03*
X156316600Y-113682100D03*
X156316600Y-113182100D03*
X154516600Y-116182100D03*
X156316600Y-116182100D03*
X154516600Y-112682100D03*
X156316600Y-112682100D03*
X154514900Y-104946600D03*
X154514900Y-103946600D03*
X154514900Y-104446600D03*
X154514900Y-103446600D03*
X154514900Y-102946600D03*
X154514900Y-102446600D03*
X156314900Y-104946600D03*
X156314900Y-104446600D03*
X156314900Y-103946600D03*
X156314900Y-103446600D03*
X156314900Y-102946600D03*
X156314900Y-102446600D03*
X154514900Y-105446600D03*
X156314900Y-105446600D03*
X154514900Y-101946600D03*
X156314900Y-101946600D03*
D16*
X85476000Y-100483500D03*
D17*
X82936000Y-100483500D03*
D16*
X78313200Y-113805800D03*
X78313200Y-111265800D03*
X78313200Y-108725800D03*
X78313200Y-106185800D03*
X78313200Y-103645800D03*
X78313200Y-101105800D03*
X78313200Y-98565800D03*
D17*
X78313200Y-96025800D03*
D16*
X103020000Y-46500000D03*
X100480000Y-46500000D03*
X97940000Y-46500000D03*
D17*
X95400000Y-46500000D03*
D16*
X144835800Y-133389200D03*
X142295800Y-133389200D03*
X139755800Y-133389200D03*
X137215800Y-133389200D03*
X134675800Y-133389200D03*
X132135800Y-133389200D03*
X129595800Y-133389200D03*
X127055800Y-133389200D03*
D17*
X124515800Y-133389200D03*
D16*
X143630000Y-50230000D03*
X143630000Y-52770000D03*
X141090000Y-50230000D03*
X141090000Y-52770000D03*
X138550000Y-50230000D03*
X138550000Y-52770000D03*
X136010000Y-50230000D03*
X136010000Y-52770000D03*
X133470000Y-50230000D03*
X133470000Y-52770000D03*
X130930000Y-50230000D03*
X130930000Y-52770000D03*
X128390000Y-50230000D03*
X128390000Y-52770000D03*
X125850000Y-50230000D03*
X125850000Y-52770000D03*
X123310000Y-50230000D03*
X123310000Y-52770000D03*
X120770000Y-50230000D03*
X120770000Y-52770000D03*
X118230000Y-50230000D03*
X118230000Y-52770000D03*
X115690000Y-50230000D03*
X115690000Y-52770000D03*
X113150000Y-50230000D03*
X113150000Y-52770000D03*
X110610000Y-50230000D03*
X110610000Y-52770000D03*
X108070000Y-50230000D03*
X108070000Y-52770000D03*
X105530000Y-50230000D03*
X105530000Y-52770000D03*
X102990000Y-50230000D03*
X102990000Y-52770000D03*
X100450000Y-50230000D03*
X100450000Y-52770000D03*
X97910000Y-50230000D03*
X97910000Y-52770000D03*
X95370000Y-50230000D03*
D17*
X95370000Y-52770000D03*
D16*
X120020000Y-138520000D03*
X117480000Y-138520000D03*
X114940000Y-138520000D03*
X112400000Y-138520000D03*
X109860000Y-138520000D03*
X107320000Y-138520000D03*
X104780000Y-138520000D03*
X102240000Y-138520000D03*
X99700000Y-138520000D03*
X97160000Y-138520000D03*
X94620000Y-138520000D03*
X92080000Y-138520000D03*
X89540000Y-138520000D03*
X87000000Y-138520000D03*
X84460000Y-138520000D03*
D17*
X81920000Y-138520000D03*
D16*
X120020000Y-135980000D03*
X117480000Y-135980000D03*
X114940000Y-135980000D03*
X112400000Y-135980000D03*
X109860000Y-135980000D03*
X107320000Y-135980000D03*
X104780000Y-135980000D03*
X102240000Y-135980000D03*
X99700000Y-135980000D03*
X97160000Y-135980000D03*
X94620000Y-135980000D03*
X92080000Y-135980000D03*
X89540000Y-135980000D03*
X87000000Y-135980000D03*
X84460000Y-135980000D03*
D17*
X81920000Y-135980000D03*
D16*
X120020000Y-133440000D03*
X117480000Y-133440000D03*
X114940000Y-133440000D03*
X112400000Y-133440000D03*
X109860000Y-133440000D03*
X107320000Y-133440000D03*
X104780000Y-133440000D03*
X102240000Y-133440000D03*
X99700000Y-133440000D03*
X97160000Y-133440000D03*
X94620000Y-133440000D03*
X92080000Y-133440000D03*
X89540000Y-133440000D03*
X87000000Y-133440000D03*
X84460000Y-133440000D03*
D17*
X81920000Y-133440000D03*
D16*
X165740000Y-52160000D03*
X165740000Y-54700000D03*
X165740000Y-57240000D03*
X165740000Y-59780000D03*
X165740000Y-62320000D03*
X165740000Y-64860000D03*
X165740000Y-67400000D03*
D17*
X165740000Y-69940000D03*
D16*
X168280000Y-75782000D03*
X168280000Y-78322000D03*
X168280000Y-80862000D03*
X168280000Y-83402000D03*
X168280000Y-85942000D03*
X168280000Y-88482000D03*
X168280000Y-91022000D03*
D17*
X168280000Y-93562000D03*
D16*
X168280000Y-52160000D03*
X168280000Y-54700000D03*
X168280000Y-57240000D03*
X168280000Y-59780000D03*
X168280000Y-62320000D03*
X168280000Y-64860000D03*
X168280000Y-67400000D03*
D17*
X168280000Y-69940000D03*
D16*
X165740000Y-75782000D03*
X165740000Y-78322000D03*
X165740000Y-80862000D03*
X165740000Y-83402000D03*
X165740000Y-85942000D03*
X165740000Y-88482000D03*
X165740000Y-91022000D03*
D17*
X165740000Y-93562000D03*
D16*
X160660000Y-75782000D03*
X160660000Y-78322000D03*
X160660000Y-80862000D03*
X160660000Y-83402000D03*
X160660000Y-85942000D03*
X160660000Y-88482000D03*
X160660000Y-91022000D03*
D17*
X160660000Y-93562000D03*
D16*
X163200000Y-52160000D03*
X163200000Y-54700000D03*
X163200000Y-57240000D03*
X163200000Y-59780000D03*
X163200000Y-62320000D03*
X163200000Y-64860000D03*
X163200000Y-67400000D03*
D17*
X163200000Y-69940000D03*
D16*
X163200000Y-75782000D03*
X163200000Y-78322000D03*
X163200000Y-80862000D03*
X163200000Y-83402000D03*
X163200000Y-85942000D03*
X163200000Y-88482000D03*
X163200000Y-91022000D03*
D17*
X163200000Y-93562000D03*
D16*
X160660000Y-52160000D03*
X160660000Y-54700000D03*
X160660000Y-57240000D03*
X160660000Y-59780000D03*
X160660000Y-62320000D03*
X160660000Y-64860000D03*
X160660000Y-67400000D03*
D17*
X160660000Y-69940000D03*
D20*
X77565800Y-71656400D03*
X82565800Y-71656400D03*
X82565800Y-76656400D03*
X77565800Y-76656400D03*
D16*
X168280000Y-100293000D03*
X168280000Y-102833000D03*
X168280000Y-105373000D03*
X168280000Y-107913000D03*
X168280000Y-110453000D03*
X168280000Y-112993000D03*
X168280000Y-115533000D03*
X168280000Y-118073000D03*
X168280000Y-120613000D03*
D17*
X168280000Y-123153000D03*
D16*
X165740000Y-100293000D03*
X165740000Y-102833000D03*
X165740000Y-105373000D03*
X165740000Y-107913000D03*
X165740000Y-110453000D03*
X165740000Y-112993000D03*
X165740000Y-115533000D03*
X165740000Y-118073000D03*
X165740000Y-120613000D03*
D17*
X165740000Y-123153000D03*
D16*
X163200000Y-100293000D03*
X163200000Y-102833000D03*
X163200000Y-105373000D03*
X163200000Y-107913000D03*
X163200000Y-110453000D03*
X163200000Y-112993000D03*
X163200000Y-115533000D03*
X163200000Y-118073000D03*
X163200000Y-120613000D03*
D17*
X163200000Y-123153000D03*
D16*
X160660000Y-100293000D03*
X160660000Y-102833000D03*
X160660000Y-105373000D03*
X160660000Y-107913000D03*
X160660000Y-110453000D03*
X160660000Y-112993000D03*
X160660000Y-115533000D03*
X160660000Y-118073000D03*
X160660000Y-120613000D03*
D17*
X160660000Y-123153000D03*
D16*
X75773200Y-113805800D03*
X75773200Y-111265800D03*
X75773200Y-108725800D03*
X75773200Y-106185800D03*
X75773200Y-103645800D03*
X75773200Y-101105800D03*
X75773200Y-98565800D03*
D17*
X75773200Y-96025800D03*
D16*
X144861200Y-138469200D03*
X142321200Y-138469200D03*
X139781200Y-138469200D03*
X137241200Y-138469200D03*
X134701200Y-138469200D03*
X132161200Y-138469200D03*
X129621200Y-138469200D03*
D17*
X127081200Y-138469200D03*
D16*
X144861200Y-135929200D03*
X142321200Y-135929200D03*
X139781200Y-135929200D03*
X137241200Y-135929200D03*
X134701200Y-135929200D03*
X132161200Y-135929200D03*
X129621200Y-135929200D03*
D17*
X127081200Y-135929200D03*
D21*
X157049000Y-132449400D03*
X157049000Y-138949400D03*
X161549000Y-138949400D03*
D22*
X161549000Y-132449400D03*
D21*
X149784600Y-132449400D03*
X149784600Y-138949400D03*
X154284600Y-138949400D03*
D22*
X154284600Y-132449400D03*
D23*
X75500000Y-138500000D03*
X90500000Y-100500000D03*
X148500000Y-100500000D03*
X168500000Y-138500000D03*
X168500000Y-45500000D03*
X148500000Y-51500000D03*
X75500000Y-45500000D03*
X90500000Y-51500000D03*
D18*
X96499600Y-98489600D03*
X104119600Y-80709600D03*
X96499600Y-95949600D03*
X104119600Y-83249600D03*
X96499600Y-93409600D03*
X104119600Y-85789600D03*
X96499600Y-90869600D03*
X104119600Y-88329600D03*
X96499600Y-88329600D03*
X104119600Y-90869600D03*
X96499600Y-85789600D03*
X104119600Y-93409600D03*
X96499600Y-83249600D03*
X104119600Y-95949600D03*
X96499600Y-80709600D03*
D19*
X104119600Y-98489600D03*
M02*
