M48
; DRILL file {KiCad 5.1.5+dfsg1-2build2} date Thu Jul 30 11:43:05 2020
; FORMAT={-:-/ absolute / inch / decimal}
; #@! TF.CreationDate,2020-07-30T11:43:05-05:00
; #@! TF.GenerationSoftware,Kicad,Pcbnew,5.1.5+dfsg1-2build2
; #@! TF.FileFunction,Plated,1,4,PTH
FMAT,2
INCH
T1C0.0157
T2C0.0200
T3C0.0250
T4C0.0300
T5C0.0315
T6C0.0394
T7C0.0472
%
G90
G05
T1
X2.8777Y-4.936
X2.8787Y-4.579
X2.8787Y-4.612
X2.8787Y-4.645
X2.9117Y-4.579
X2.9117Y-4.612
X2.9117Y-4.645
X2.9227Y-4.8935
X2.9527Y-4.8585
X3.0002Y-4.8935
X3.0002Y-5.076
X3.0352Y-4.6735
X3.0477Y-4.9485
X3.0702Y-4.8185
X3.0812Y-3.2785
X3.0812Y-3.3285
X3.0812Y-3.3785
X3.0842Y-3.4725
X3.1162Y-3.5535
X3.1302Y-1.765
X3.1527Y-4.821
X3.1531Y-4.7382
X3.1537Y-2.095
X3.1562Y-3.5535
X3.1627Y-1.881
X3.1652Y-4.7785
X3.1712Y-3.4735
X3.1977Y-4.7785
X3.2007Y-1.916
X3.2203Y-2.0874
X3.2203Y-2.1744
X3.2302Y-4.7785
X3.2462Y-3.5535
X3.2602Y-1.946
X3.2602Y-1.9785
X3.2602Y-2.011
X3.2602Y-2.076
X3.2607Y-2.0435
X3.2627Y-4.7785
X3.2812Y-3.5535
X3.3002Y-2.3435
X3.3007Y-2.174
X3.3037Y-2.086
X3.3177Y-4.7235
X3.3527Y-4.686
X3.3537Y-2.24
X3.3547Y-2.317
X3.3927Y-2.3635
X3.5087Y-2.277
X3.5372Y-4.7385
X3.5452Y-4.0335
X3.5852Y-1.9335
X3.6027Y-3.391
X3.6152Y-3.871
X3.6252Y-1.9335
X3.6252Y-1.9735
X3.6252Y-2.0135
X3.6252Y-4.0335
X3.6272Y-4.9715
X3.6272Y-4.8531
X3.6652Y-1.9335
X3.8592Y-4.9775
X3.9152Y-2.4735
X3.9152Y-2.7635
X3.9602Y-2.4735
X3.9627Y-2.7635
X3.9642Y-4.6985
X4.0152Y-4.9775
X4.0172Y-4.8525
X4.0405Y-4.743
X4.0552Y-3.4285
X4.0577Y-3.5305
X4.2452Y-4.9755
X4.3222Y-4.3605
X4.3552Y-4.791
X4.3752Y-2.696
X4.3827Y-4.641
X4.4002Y-4.751
X4.4277Y-4.681
X4.4398Y-4.8714
X4.4625Y-2.0768
X4.4732Y-2.5725
X4.4777Y-4.751
X4.5052Y-4.681
X4.5221Y-2.6683
X4.5227Y-4.791
X4.5427Y-4.486
X4.5448Y-4.6414
X4.5732Y-2.5785
X4.5752Y-4.1535
X4.5977Y-4.3785
X4.6285Y-4.5577
X4.6298Y-4.6414
X4.6442Y-3.1375
X4.6442Y-3.3735
X4.6452Y-3.2145
X4.6552Y-4.1535
X4.6577Y-4.601
X4.6851Y-2.0802
X4.6902Y-4.601
X4.7227Y-2.1035
X4.7227Y-4.601
X4.7522Y-3.6345
X4.7552Y-4.601
X4.7845Y-3.5503
X4.7872Y-2.4275
X4.7912Y-3.5965
X4.7952Y-4.546
X4.8038Y-3.6798
X4.8242Y-2.7155
X4.9052Y-4.1535
X4.9292Y-3.0935
X4.9292Y-3.1525
X4.9342Y-3.3695
X4.9352Y-3.4277
X4.9367Y-2.6775
X4.9527Y-3.531
X4.9712Y-3.4885
X4.9852Y-4.1535
X4.9882Y-4.5689
X4.9982Y-2.4495
X5.0152Y-2.816
X5.0332Y-2.4855
X5.0392Y-4.7895
X5.0402Y-4.9204
X5.0477Y-3.4285
X5.0492Y-4.5145
X5.0727Y-2.6985
X5.0827Y-3.041
X5.0949Y-2.8139
X5.1392Y-4.7895
X5.1412Y-2.8975
X5.1412Y-3.012
X5.1412Y-3.212
X5.1412Y-3.5208
X5.1412Y-4.9201
X5.1492Y-4.5215
X5.1712Y-3.9108
X5.1852Y-2.391
X5.1852Y-2.4285
X5.1859Y-2.6078
X5.2127Y-3.4285
X5.2132Y-2.8105
X5.2326Y-3.5419
X5.2402Y-4.7885
X5.2419Y-4.9222
X5.2677Y-2.386
X5.2677Y-2.426
X5.2722Y-3.9815
X5.2877Y-3.541
X5.3127Y-2.436
X5.3412Y-4.7885
X5.3414Y-4.9204
X5.3722Y-4.0525
X5.3802Y-2.3185
X5.3902Y-3.5225
X5.3992Y-4.4085
X5.3992Y-4.5305
X5.4152Y-3.8335
X5.4159Y-3.5507
X5.4302Y-2.261
X5.4392Y-4.4635
X5.4402Y-4.7891
X5.4414Y-4.9225
X5.4682Y-2.8125
X5.4802Y-2.5285
X5.5024Y-2.5759
X5.5302Y-2.461
X5.5302Y-2.866
X5.5411Y-4.7874
X5.542Y-4.9218
X5.5672Y-3.5525
X5.5952Y-3.5185
X5.5992Y-2.9505
X5.6Y-3.0988
X5.6127Y-2.2685
X5.6182Y-3.1745
X5.6202Y-3.4535
X5.621Y-3.5497
X5.6234Y-3.1298
X5.6302Y-3.071
X5.6391Y-4.9197
X5.6395Y-4.787
X5.6432Y-2.9495
X5.6571Y-3.1951
X5.6652Y-3.4135
X5.6702Y-2.9175
X5.6722Y-3.2705
X5.6902Y-2.6135
X5.6962Y-2.7605
X5.721Y-3.6453
X5.7282Y-2.6455
X5.7408Y-4.9215
X5.7417Y-4.7883
X5.8152Y-3.2385
X5.8612Y-3.4975
X5.8622Y-2.9135
X5.8652Y-3.2385
X5.8722Y-2.8335
X5.9222Y-2.8055
X5.9432Y-3.1455
X5.9432Y-3.5355
X5.9432Y-4.1295
X5.9432Y-4.5175
X5.9432Y-4.9075
X5.9981Y-3.1484
X6.0032Y-3.5355
X6.0032Y-4.1255
X6.0032Y-4.5135
X6.0032Y-4.9035
X6.0132Y-2.9047
X6.0165Y-2.9591
X6.0192Y-3.0195
X6.0453Y-2.9321
X6.0472Y-2.9875
X6.0552Y-3.7475
X6.0612Y-3.6995
X6.0652Y-1.7135
X6.0852Y-2.0835
X6.0942Y-2.3865
X6.1156Y-4.6671
X6.1162Y-4.3825
X6.117Y-3.5219
X6.1177Y-3.9565
X6.1204Y-3.097
X6.1232Y-3.0535
X6.1352Y-2.0835
X6.157Y-5.067
X6.1732Y-4.2335
X6.1752Y-2.8615
X6.1752Y-3.2515
X6.1752Y-3.5435
X6.1752Y-4.1875
X6.1762Y-4.6095
X6.1762Y-4.9205
X6.1872Y-2.0835
X6.2252Y-4.6505
X6.2277Y-4.966
X6.232Y-3.18
X6.2348Y-2.967
X6.2352Y-3.8635
X6.2444Y-3.0465
X6.25Y-3.0074
X6.2627Y-4.966
X6.2652Y-1.7135
X6.2852Y-3.8635
X6.2977Y-4.966
X6.3352Y-3.8635
X6.4457Y-5.0721
X6.4482Y-5.183
X6.4652Y-1.7135
T2
X4.3322Y-4.4465
X4.3322Y-4.4925
X4.3332Y-4.5385
X4.3332Y-4.5835
T3
X3.8096Y-2.374
X3.8096Y-2.414
X3.8096Y-2.6591
X3.8096Y-2.7
X3.8132Y-2.9435
X3.8132Y-2.9855
T4
X3.5952Y-2.4115
X3.5952Y-2.4715
X3.5952Y-2.5315
X3.5952Y-2.5915
X3.5952Y-2.6515
X4.0152Y-2.6095
X4.0212Y-2.8955
X4.0652Y-2.6095
X4.0712Y-2.8955
X4.1152Y-2.6075
X4.1212Y-2.8955
X4.1772Y-2.0095
X4.1772Y-2.0615
X4.2312Y-2.0075
T5
X3.7992Y-3.1775
X3.7992Y-3.2775
X3.7992Y-3.3775
X3.7992Y-3.4775
X3.7992Y-3.5775
X3.7992Y-3.6775
X3.7992Y-3.7775
X3.7992Y-3.8775
X4.0992Y-3.1775
X4.0992Y-3.2775
X4.0992Y-3.3775
X4.0992Y-3.4775
X4.0992Y-3.5775
X4.0992Y-3.6775
X4.0992Y-3.7775
X4.0992Y-3.8775
X4.5077Y-4.2685
X4.8077Y-4.2685
T6
X6.4252Y-2.0535
X6.4252Y-2.1535
X6.4252Y-2.2535
X6.4252Y-2.3535
X6.4252Y-2.4535
X6.4252Y-2.5535
X6.4252Y-2.6535
X6.4252Y-2.7535
X6.6252Y-3.9485
X6.6252Y-4.0485
X6.6252Y-4.1485
X6.6252Y-4.2485
X6.6252Y-4.3485
X6.6252Y-4.4485
X6.6252Y-4.5485
X6.6252Y-4.6485
X6.6252Y-4.7485
X6.6252Y-4.8485
X6.6252Y-2.9835
X6.6252Y-3.0835
X6.6252Y-3.1835
X6.6252Y-3.2835
X6.6252Y-3.3835
X6.6252Y-3.4835
X6.6252Y-3.5835
X6.6252Y-3.6835
X3.0832Y-3.7805
X3.0832Y-3.8805
X3.0832Y-3.9805
X3.0832Y-4.0805
X3.0832Y-4.1805
X3.0832Y-4.2805
X3.0832Y-4.3805
X3.0832Y-4.4805
X3.7562Y-2.0045
X3.8562Y-2.0045
X3.9562Y-2.0045
X4.0562Y-2.0045
X3.7547Y-1.7413
X3.7547Y-1.8413
X3.8547Y-1.7413
X3.8547Y-1.8413
X3.9547Y-1.7413
X3.9547Y-1.8413
X4.0547Y-1.7413
X4.0547Y-1.8413
X4.1547Y-1.7413
X4.1547Y-1.8413
X4.2547Y-1.7413
X4.2547Y-1.8413
X4.3547Y-1.7413
X4.3547Y-1.8413
X4.4547Y-1.7413
X4.4547Y-1.8413
X4.5547Y-1.7413
X4.5547Y-1.8413
X4.6547Y-1.7413
X4.6547Y-1.8413
X4.7547Y-1.7413
X4.7547Y-1.8413
X4.8547Y-1.7413
X4.8547Y-1.8413
X4.9547Y-1.7413
X4.9547Y-1.8413
X5.0547Y-1.7413
X5.0547Y-1.8413
X5.1547Y-1.7413
X5.1547Y-1.8413
X5.2547Y-1.7413
X5.2547Y-1.8413
X5.3547Y-1.7413
X5.3547Y-1.8413
X5.4547Y-1.7413
X5.4547Y-1.8413
X5.5547Y-1.7413
X5.5547Y-1.8413
X5.6547Y-1.7413
X5.6547Y-1.8413
X6.3252Y-2.9835
X6.3252Y-3.0835
X6.3252Y-3.1835
X6.3252Y-3.2835
X6.3252Y-3.3835
X6.3252Y-3.4835
X6.3252Y-3.5835
X6.3252Y-3.6835
X3.2252Y-5.4535
X3.3252Y-5.4535
X3.4252Y-5.4535
X3.5252Y-5.4535
X3.6252Y-5.4535
X3.7252Y-5.4535
X3.8252Y-5.4535
X3.9252Y-5.4535
X4.0252Y-5.4535
X4.1252Y-5.4535
X4.2252Y-5.4535
X4.3252Y-5.4535
X4.4252Y-5.4535
X4.5252Y-5.4535
X4.6252Y-5.4535
X4.7252Y-5.4535
X6.3252Y-2.0535
X6.3252Y-2.1535
X6.3252Y-2.2535
X6.3252Y-2.3535
X6.3252Y-2.4535
X6.3252Y-2.5535
X6.3252Y-2.6535
X6.3252Y-2.7535
X6.4252Y-2.9835
X6.4252Y-3.0835
X6.4252Y-3.1835
X6.4252Y-3.2835
X6.4252Y-3.3835
X6.4252Y-3.4835
X6.4252Y-3.5835
X6.4252Y-3.6835
X5.0032Y-5.3515
X5.1032Y-5.3515
X5.2032Y-5.3515
X5.3032Y-5.3515
X5.4032Y-5.3515
X5.5032Y-5.3515
X5.6032Y-5.3515
X5.7032Y-5.3515
X3.2252Y-5.2535
X3.3252Y-5.2535
X3.4252Y-5.2535
X3.5252Y-5.2535
X3.6252Y-5.2535
X3.7252Y-5.2535
X3.8252Y-5.2535
X3.9252Y-5.2535
X4.0252Y-5.2535
X4.1252Y-5.2535
X4.2252Y-5.2535
X4.3252Y-5.2535
X4.4252Y-5.2535
X4.5252Y-5.2535
X4.6252Y-5.2535
X4.7252Y-5.2535
X3.2677Y-3.881
X3.3677Y-3.881
X6.4252Y-3.9485
X6.4252Y-4.0485
X6.4252Y-4.1485
X6.4252Y-4.2485
X6.4252Y-4.3485
X6.4252Y-4.4485
X6.4252Y-4.5485
X6.4252Y-4.6485
X6.4252Y-4.7485
X6.4252Y-4.8485
X6.6252Y-2.0535
X6.6252Y-2.1535
X6.6252Y-2.2535
X6.6252Y-2.3535
X6.6252Y-2.4535
X6.6252Y-2.5535
X6.6252Y-2.6535
X6.6252Y-2.7535
X3.2252Y-5.3535
X3.3252Y-5.3535
X3.4252Y-5.3535
X3.5252Y-5.3535
X3.6252Y-5.3535
X3.7252Y-5.3535
X3.8252Y-5.3535
X3.9252Y-5.3535
X4.0252Y-5.3535
X4.1252Y-5.3535
X4.2252Y-5.3535
X4.3252Y-5.3535
X4.4252Y-5.3535
X4.5252Y-5.3535
X4.6252Y-5.3535
X4.7252Y-5.3535
X6.5252Y-2.9835
X6.5252Y-3.0835
X6.5252Y-3.1835
X6.5252Y-3.2835
X6.5252Y-3.3835
X6.5252Y-3.4835
X6.5252Y-3.5835
X6.5252Y-3.6835
X4.9022Y-5.2515
X5.0022Y-5.2515
X5.1022Y-5.2515
X5.2022Y-5.2515
X5.3022Y-5.2515
X5.4022Y-5.2515
X5.5022Y-5.2515
X5.6022Y-5.2515
X5.7022Y-5.2515
X6.5252Y-3.9485
X6.5252Y-4.0485
X6.5252Y-4.1485
X6.5252Y-4.2485
X6.5252Y-4.3485
X6.5252Y-4.4485
X6.5252Y-4.5485
X6.5252Y-4.6485
X6.5252Y-4.7485
X6.5252Y-4.8485
X5.0032Y-5.4515
X5.1032Y-5.4515
X5.2032Y-5.4515
X5.3032Y-5.4515
X5.4032Y-5.4515
X5.5032Y-5.4515
X5.6032Y-5.4515
X5.7032Y-5.4515
X2.9832Y-3.7805
X2.9832Y-3.8805
X2.9832Y-3.9805
X2.9832Y-4.0805
X2.9832Y-4.1805
X2.9832Y-4.2805
X2.9832Y-4.3805
X2.9832Y-4.4805
X6.3252Y-3.9485
X6.3252Y-4.0485
X6.3252Y-4.1485
X6.3252Y-4.2485
X6.3252Y-4.3485
X6.3252Y-4.4485
X6.3252Y-4.5485
X6.3252Y-4.6485
X6.3252Y-4.7485
X6.3252Y-4.8485
X3.2677Y-3.781
X3.3677Y-3.781
X6.5252Y-2.0535
X6.5252Y-2.1535
X6.5252Y-2.2535
X6.5252Y-2.3535
X6.5252Y-2.4535
X6.5252Y-2.5535
X6.5252Y-2.6535
X6.5252Y-2.7535
T7
X5.897Y-5.2145
X5.897Y-5.4704
X6.0742Y-5.2145
X6.0742Y-5.4704
X6.183Y-5.2145
X6.183Y-5.4704
X6.3602Y-5.2145
X6.3602Y-5.4704
X3.0538Y-2.8211
X3.0538Y-3.018
X3.2506Y-2.8211
X3.2506Y-3.018
T0
M30
